<?xml version="1.0" encoding="UTF-8"?>
<svg version="1.1" xmlns="http://www.w3.org/2000/svg" width="150" height="150">
<path d="M0 0 C0.89814423 -0.0049649 1.79628845 -0.00992981 2.72164917 -0.01504517 C5.6939979 -0.02965138 8.66629315 -0.03646831 11.63867188 -0.04199219 C13.71171062 -0.04774747 15.78474936 -0.05350515 17.85778809 -0.05926514 C22.20890551 -0.06977252 26.56000449 -0.07561606 30.91113281 -0.07910156 C36.46115008 -0.08456796 42.01091974 -0.10855738 47.56085968 -0.13707352 C51.84709357 -0.15579142 56.13326911 -0.16091048 60.41954041 -0.16243744 C62.46387578 -0.16544682 64.50821056 -0.17341677 66.55250549 -0.18662262 C77.22190271 -0.25059257 86.82899622 -0.05388081 97.10742188 3.16113281 C97.76742187 3.16113281 98.42742187 3.16113281 99.10742188 3.16113281 C99.72617187 4.86269531 99.72617187 4.86269531 100.35742188 6.59863281 C101.47022797 9.61952007 102.74810752 12.45693065 104.18345642 15.33583069 C106.3850436 20.28098121 106.68158448 24.56940489 106.64086914 29.9284668 C106.64948471 30.85981445 106.65810028 31.79116211 106.66697693 32.75073242 C106.68952051 35.80318682 106.68291925 38.85471442 106.67382812 41.90722656 C106.67906889 44.04517385 106.68534703 46.18311882 106.69261169 48.32106018 C106.70299457 52.79203202 106.69848476 57.26268515 106.68383789 61.73364258 C106.66665493 67.44428135 106.6901512 73.15391346 106.72532749 78.86443996 C106.74735785 83.27674441 106.74584629 87.68881009 106.73756218 92.10115242 C106.73674573 94.20575121 106.74355014 96.31036806 106.75833321 98.41491508 C106.89141768 120.78876669 106.89141768 120.78876669 99.19459534 129.26853943 C91.97927363 136.45605481 82.98661531 137.96800572 73.10742188 138.16113281 C70.69941999 137.98168033 68.48021328 137.63569109 66.10742188 137.16113281 C66.10742188 138.15113281 66.10742188 139.14113281 66.10742188 140.16113281 C58.23242188 139.28613281 58.23242188 139.28613281 57.10742188 138.16113281 C55.46786079 138.07804237 53.82470596 138.0647716 52.18310547 138.0793457 C50.60412979 138.08914207 50.60412979 138.08914207 48.99325562 138.09913635 C47.84241486 138.11057175 46.6915741 138.12200714 45.50585938 138.13378906 C43.07096507 138.14645581 40.63606915 138.1588152 38.20117188 138.17089844 C34.36160247 138.19552982 30.52211725 138.2232834 26.68261719 138.25708008 C-12.50715694 138.58068875 -12.50715694 138.58068875 -21.89257812 131.16113281 C-24.33007812 128.41113281 -24.33007812 128.41113281 -25.89257812 126.16113281 C-26.55257813 125.83113281 -27.21257813 125.50113281 -27.89257812 125.16113281 C-28.2998704 122.83956684 -28.63696489 120.50425411 -28.89257812 118.16113281 C-30.54257812 117.50113281 -32.19257812 116.84113281 -33.89257812 116.16113281 C-33.56257813 114.84113281 -33.23257813 113.52113281 -32.89257812 112.16113281 C-31.90257812 112.16113281 -30.91257812 112.16113281 -29.89257812 112.16113281 C-29.89257812 99.29113281 -29.89257812 86.42113281 -29.89257812 73.16113281 C-31.21257813 72.50113281 -32.53257813 71.84113281 -33.89257812 71.16113281 C-31.91257812 70.17113281 -31.91257812 70.17113281 -29.89257812 69.16113281 C-29.89923996 68.56502197 -29.90590179 67.96891113 -29.9127655 67.35473633 C-29.97936913 61.12505511 -30.02448229 54.89547582 -30.05737305 48.66552734 C-30.07241724 46.34354541 -30.09285757 44.0215917 -30.11889648 41.69970703 C-30.15547158 38.35344459 -30.17234867 35.00755937 -30.18554688 31.66113281 C-30.20103073 30.63060791 -30.21651459 29.60008301 -30.23246765 28.53833008 C-30.23415714 21.2283149 -29.11791329 15.89969588 -25.33007812 9.53613281 C-17.7158047 2.11709717 -10.32704739 0.01364987 0 0 Z " fill="#708CEB" transform="translate(36.892578125,6.8388671875)"/>
<path d="M0 0 C11.30546478 -0.51026075 20.65715888 4.32359955 29.45703125 11.1875 C32.13221138 13.94872394 34.64609972 16.80414033 37.15234375 19.71875 C40.02533157 22.7962556 42.65559027 24.45205955 46.45703125 26.1875 C46.45703125 27.5075 46.45703125 28.8275 46.45703125 30.1875 C44.14703125 30.5175 41.83703125 30.8475 39.45703125 31.1875 C39.45703125 32.1775 39.45703125 33.1675 39.45703125 34.1875 C34.04164663 34.55673077 34.04164663 34.55673077 31.08203125 32.6875 C30.54578125 32.1925 30.00953125 31.6975 29.45703125 31.1875 C29.03716179 33.47586222 29.03716179 33.47586222 29.45703125 36.1875 C30.69453125 37.425 30.69453125 37.425 31.95703125 38.6875 C34.45703125 41.1875 34.45703125 41.1875 35.08203125 43.625 C34.35468956 46.60710093 32.95030263 48.19448667 30.90234375 50.4296875 C28.22910238 53.680927 26.39887038 57.46908465 24.45703125 61.1875 C25.11703125 61.1875 25.77703125 61.1875 26.45703125 61.1875 C26.08115006 65.44748682 24.64677085 67.38674824 21.515625 70.26953125 C18.20413241 76.26932041 21.22935281 85.36661504 22.45703125 91.6875 C22.74320313 93.20730469 22.74320313 93.20730469 23.03515625 94.7578125 C23.50267736 97.23567439 23.97676453 99.71208268 24.45703125 102.1875 C24.90691406 101.68605469 25.35679688 101.18460937 25.8203125 100.66796875 C26.63048828 99.93513672 26.63048828 99.93513672 27.45703125 99.1875 C29.64453125 99.5 29.64453125 99.5 31.45703125 100.1875 C31.78703125 102.1675 32.11703125 104.1475 32.45703125 106.1875 C34.43703125 106.1875 36.41703125 106.1875 38.45703125 106.1875 C38.45703125 107.5075 38.45703125 108.8275 38.45703125 110.1875 C37.49796875 110.7753125 37.49796875 110.7753125 36.51953125 111.375 C33.54597216 113.98812768 33.80306846 116.50646977 33.53515625 120.32421875 C33.509375 120.93910156 33.48359375 121.55398437 33.45703125 122.1875 C31.80703125 121.5275 30.15703125 120.8675 28.45703125 120.1875 C28.12703125 121.8375 27.79703125 123.4875 27.45703125 125.1875 C24.81703125 124.8575 22.17703125 124.5275 19.45703125 124.1875 C19.45703125 125.1775 19.45703125 126.1675 19.45703125 127.1875 C11.58203125 126.3125 11.58203125 126.3125 10.45703125 125.1875 C8.81747016 125.10440956 7.17431534 125.09113879 5.53271484 125.10571289 C3.95373917 125.11550926 3.95373917 125.11550926 2.34286499 125.12550354 C1.19202423 125.13693893 0.04118347 125.14837433 -1.14453125 125.16015625 C-3.57942556 125.17282299 -6.01432148 125.18518239 -8.44921875 125.19726562 C-12.28878815 125.22189701 -16.12827338 125.24965059 -19.96777344 125.28344727 C-59.15754757 125.60705593 -59.15754757 125.60705593 -68.54296875 118.1875 C-70.98046875 115.4375 -70.98046875 115.4375 -72.54296875 113.1875 C-73.20296875 112.8575 -73.86296875 112.5275 -74.54296875 112.1875 C-74.95026103 109.86593403 -75.28735552 107.5306213 -75.54296875 105.1875 C-77.19296875 104.5275 -78.84296875 103.8675 -80.54296875 103.1875 C-80.21296875 101.8675 -79.88296875 100.5475 -79.54296875 99.1875 C-77.56296875 99.1875 -75.58296875 99.1875 -73.54296875 99.1875 C-73.21296875 97.2075 -72.88296875 95.2275 -72.54296875 93.1875 C-71.22296875 93.1875 -69.90296875 93.1875 -68.54296875 93.1875 C-67.88296875 94.5075 -67.22296875 95.8275 -66.54296875 97.1875 C-63.07796875 96.6925 -63.07796875 96.6925 -59.54296875 96.1875 C-59.54296875 96.8475 -59.54296875 97.5075 -59.54296875 98.1875 C-52.51661015 98.88101236 -52.51661015 98.88101236 -46.41796875 95.8125 C-44.34922269 93.45390084 -44.34922269 93.45390084 -44.54296875 91.1875 C-45.86296875 90.8575 -47.18296875 90.5275 -48.54296875 90.1875 C-47.88296875 86.8875 -47.22296875 83.5875 -46.54296875 80.1875 C-42.91296875 80.1875 -39.28296875 80.1875 -35.54296875 80.1875 C-35.21296875 80.8475 -34.88296875 81.5075 -34.54296875 82.1875 C-34.00313995 78.39829101 -33.48966975 74.60593628 -32.98046875 70.8125 C-32.82900391 69.75160156 -32.67753906 68.69070312 -32.52148438 67.59765625 C-30.74396382 55.1644939 -30.74396382 55.1644939 -35.04296875 43.8125 C-36.91161409 41.25940899 -37.93746353 39.31135647 -38.54296875 36.1875 C-37.22296875 36.1875 -35.90296875 36.1875 -34.54296875 36.1875 C-35.53782444 30.09400892 -37.74678877 27.64095685 -42.5703125 23.86328125 C-44.62063927 22.12151851 -46.10282513 20.45779011 -47.54296875 18.1875 C-47.23046875 15.9375 -47.23046875 15.9375 -46.54296875 14.1875 C-42.03951182 14.71654046 -38.97462061 15.85140831 -35.10546875 18.1875 C-30.75177469 20.67362584 -27.53364629 21.96569211 -22.54296875 22.1875 C-21.88141261 18.51218809 -21.47676535 15.57736449 -22.10546875 11.875 C-22.24984375 10.988125 -22.39421875 10.10125 -22.54296875 9.1875 C-20.54296875 7.1875 -20.54296875 7.1875 -17.73046875 6.875 C-14.35350758 6.45392786 -14.35350758 6.45392786 -12.10546875 3.6875 C-8.30150103 -0.02368802 -5.10055841 0.37607804 0 0 Z " fill="#F08D57" transform="translate(83.54296875,19.8125)"/>
<path d="M0 0 C3.37497326 1.09686631 6.69752929 2.26691534 10 3.5625 C13.30522541 4.82102814 16.47776094 5.55972012 20 6 C20.83147543 15.05384354 18.95956077 22.82038105 15 31 C12.953125 33.41015625 12.953125 33.41015625 11 35 C10.34 35 9.68 35 9 35 C9 35.66 9 36.32 9 37 C16.15947128 39.29103081 22.24695435 37.57258882 29 35 C29 36.98 29 38.96 29 41 C29.66 41 30.32 41 31 41 C30.94199219 40.27296875 30.88398437 39.5459375 30.82421875 38.796875 C30.39807039 29.29985431 32.68864838 21.36535491 38.3125 13.625 C40.31530528 10.50952512 40.3461684 8.63476824 40 5 C38.02 4.01 36.04 3.02 34 2 C34 1.67 34 1.34 34 1 C36.8125 0.6875 36.8125 0.6875 40 1 C41.88599343 3.38892501 43 4.91851558 43 8 C43.7425 7.67 44.485 7.34 45.25 7 C51.77200255 5.26079932 58.35483799 4.96883515 64.6875 7.4375 C67 9 67 9 68 10 C68.25 12.9375 68.25 12.9375 68 16 C67.01 16.66 66.02 17.32 65 18 C64.505 16.515 64.505 16.515 64 15 C57.64135739 14.00689313 53.56114621 14.76981227 48.25 18.5 C43.71065683 22.13532143 39.87643256 25.92014634 37 31 C36.45859375 31.928125 35.9171875 32.85625 35.359375 33.8125 C32.87864979 39.81156146 33.64855036 46.56838771 33.75 52.9375 C33.7619374 54.3613211 33.77299701 55.78514981 33.78320312 57.20898438 C33.89573156 69.48239784 34.3363849 81.7442999 35 94 C-22.39296161 96.38529386 -22.39296161 96.38529386 -33 88 C-35.4375 85.25 -35.4375 85.25 -37 83 C-37.66 82.67 -38.32 82.34 -39 82 C-39.40729228 79.67843403 -39.74438677 77.3431213 -40 75 C-41.65 74.34 -43.3 73.68 -45 73 C-44.67 71.68 -44.34 70.36 -44 69 C-42.02 69 -40.04 69 -38 69 C-37.67 67.02 -37.34 65.04 -37 63 C-35.68 63 -34.36 63 -33 63 C-32.34 64.32 -31.68 65.64 -31 67 C-27.535 66.505 -27.535 66.505 -24 66 C-24 66.66 -24 67.32 -24 68 C-16.9736414 68.69351236 -16.9736414 68.69351236 -10.875 65.625 C-8.80625394 63.26640084 -8.80625394 63.26640084 -9 61 C-10.32 60.67 -11.64 60.34 -13 60 C-12.34 56.7 -11.68 53.4 -11 50 C-7.37 50 -3.74 50 0 50 C0.33 50.66 0.66 51.32 1 52 C1.5398288 48.21079101 2.053299 44.41843628 2.5625 40.625 C2.71396484 39.56410156 2.86542969 38.50320312 3.02148438 37.41015625 C4.79900493 24.9769939 4.79900493 24.9769939 0.5 13.625 C-1.36864534 11.07190899 -2.39449478 9.12385647 -3 6 C-1.68 6 -0.36 6 1 6 C0.505 3.03 0.505 3.03 0 0 Z " fill="#FDE175" transform="translate(48,50)"/>
<path d="M0 0 C4.00363649 3.46981829 5.69873909 6.73319796 6.1904583 12.06528473 C6.28094486 14.5210109 6.30451849 16.96935659 6.30639648 19.42675781 C6.31472 20.35766739 6.32304352 21.28857697 6.33161926 22.24769592 C6.35565586 25.31621522 6.36448413 28.38452162 6.37109375 31.453125 C6.38006562 33.59535788 6.38918757 35.73759014 6.39845276 37.87982178 C6.41492861 42.36862712 6.4226402 46.857358 6.42553711 51.34619141 C6.43091618 57.08038618 6.46858331 62.81387496 6.51428127 68.54787064 C6.54411758 72.97300736 6.55126212 77.3979755 6.55226326 81.82320404 C6.55645327 83.93619771 6.56883825 86.04919245 6.58978081 88.16208649 C6.79462738 110.61816017 6.79462738 110.61816017 -0.91334534 119.10723877 C-6.85220124 125.02542139 -13.29312162 127.14084624 -21.5625 127.1875 C-23.0422308 127.14020267 -24.52185988 127.08331896 -26 127 C-26 125.35 -26 123.7 -26 122 C-24.02 122.99 -22.04 123.98 -20 125 C-20.05800781 124.39671875 -20.11601563 123.7934375 -20.17578125 123.171875 C-20.31550362 120.69679296 -20.36047141 118.45544644 -20 116 C-17.5 113.5625 -17.5 113.5625 -15 112 C-15 111.34 -15 110.68 -15 110 C-16.98 109.67 -18.96 109.34 -21 109 C-21.4021875 107.5459375 -21.4021875 107.5459375 -21.8125 106.0625 C-22.204375 105.051875 -22.59625 104.04125 -23 103 C-23.99 102.67 -24.98 102.34 -26 102 C-26.66 103.65 -27.32 105.3 -28 107 C-30.36520988 104.63479012 -30.47893367 103.51176734 -31.0703125 100.2734375 C-31.33134766 98.84837891 -31.33134766 98.84837891 -31.59765625 97.39453125 C-31.77167969 96.39808594 -31.94570312 95.40164062 -32.125 94.375 C-32.30675781 93.40175781 -32.48851563 92.42851563 -32.67578125 91.42578125 C-35.20606763 77.29042201 -35.20606763 77.29042201 -32.72265625 72.57421875 C-31.90087891 71.64029297 -31.90087891 71.64029297 -31.0625 70.6875 C-29.01454587 68.30064093 -28.01446537 67.04339611 -27 64 C-27.66 64 -28.32 64 -29 64 C-27.11062056 58.50362344 -24.12275205 53.12275205 -20 49 C-20.13961498 43.94546248 -20.13961498 43.94546248 -23.0625 40.0625 C-23.701875 39.711875 -24.34125 39.36125 -25 39 C-24.67 37.35 -24.34 35.7 -24 34 C-23.46375 34.309375 -22.9275 34.61875 -22.375 34.9375 C-19.6015043 36.17827439 -16.99957163 36.5909675 -14 37 C-14 36.01 -14 35.02 -14 34 C-10.535 33.505 -10.535 33.505 -7 33 C-7.27617533 31.05925139 -7.27617533 31.05925139 -8 29 C-8.99 28.34 -9.98 27.68 -11 27 C-10.40602506 23.61512587 -9.55929371 20.62445994 -8.22265625 17.4609375 C-7.87396484 16.63335937 -7.52527344 15.80578125 -7.16601562 14.953125 C-6.80185547 14.10234375 -6.43769531 13.2515625 -6.0625 12.375 C-5.70220703 11.51648437 -5.34191406 10.65796875 -4.97070312 9.7734375 C-3.49003226 6.28308998 -2.11122939 3.16684409 0 0 Z " fill="#739CF0" transform="translate(137,17)"/>
<path d="M0 0 C-1.37405423 2.95950142 -3.01776932 5.41495396 -5 8 C-4.45730469 7.4225 -3.91460937 6.845 -3.35546875 6.25 C-2.64003906 5.5075 -1.92460938 4.765 -1.1875 4 C-0.47980469 3.2575 0.22789063 2.515 0.95703125 1.75 C3 0 3 0 6 0 C4.55575365 3.23861303 2.74227753 5.61969163 0.375 8.25 C-0.25664063 8.95640625 -0.88828125 9.6628125 -1.5390625 10.390625 C-2.02117187 10.92171875 -2.50328125 11.4528125 -3 12 C-0.18060883 9.79020692 2.53058944 7.59937954 5 5 C3.36516023 9.47014158 1.05117696 13.02936504 -1.66015625 16.9140625 C-5.46634871 25.6805116 -3.72923729 34.9057635 -2.0625 44 C-1.67666711 46.20803376 -1.29247302 48.41635471 -0.91015625 50.625 C-0.73621338 51.58664063 -0.56227051 52.54828125 -0.38305664 53.5390625 C0 56 0 56 0 59 C0.99 59 1.98 59 3 59 C3.144375 58.38125 3.28875 57.7625 3.4375 57.125 C4 55 4 55 5 53 C6.32 53.33 7.64 53.66 9 54 C9.495 56.97 9.495 56.97 10 60 C11.98 60 13.96 60 16 60 C16 61.32 16 62.64 16 64 C15.0409375 64.5878125 15.0409375 64.5878125 14.0625 65.1875 C11.08894091 67.80062768 11.34603721 70.31896977 11.078125 74.13671875 C11.03945312 75.05904297 11.03945312 75.05904297 11 76 C9.35 75.34 7.7 74.68 6 74 C5.67 75.65 5.34 77.3 5 79 C2.36 78.67 -0.28 78.34 -3 78 C-3 78.99 -3 79.98 -3 81 C-10.875 80.125 -10.875 80.125 -12 79 C-14.31952569 78.71898054 -16.63885514 78.55217375 -18.96875 78.37890625 C-19.6390625 78.25386719 -20.309375 78.12882812 -21 78 C-22.58559664 74.82880672 -22.36387876 71.36947571 -22.53515625 67.87890625 C-22.57813339 67.06437485 -22.62111053 66.24984344 -22.66539001 65.41062927 C-22.75570645 63.67986884 -22.84382386 61.9489925 -22.92993164 60.21801758 C-23.0604276 57.60401297 -23.19856414 54.99050023 -23.33789062 52.37695312 C-25.0527082 19.4699133 -25.0527082 19.4699133 -15 8 C-6.11433757 0 -6.11433757 0 0 0 Z " fill="#FEE276" transform="translate(106,66)"/>
<path d="M0 0 C2.8125 -0.3125 2.8125 -0.3125 6 0 C7.88599343 2.38892501 9 3.91851558 9 7 C9.7425 6.67 10.485 6.34 11.25 6 C17.77200255 4.26079932 24.35483799 3.96883515 30.6875 6.4375 C33 8 33 8 34 9 C34.25 11.9375 34.25 11.9375 34 15 C33.01 15.66 32.02 16.32 31 17 C30.505 15.515 30.505 15.515 30 14 C23.64135739 13.00689313 19.56114621 13.76981227 14.25 17.5 C9.71065683 21.13532143 5.87643256 24.92014634 3 30 C2.45859375 30.928125 1.9171875 31.85625 1.359375 32.8125 C-1.12135021 38.81156146 -0.35144964 45.56838771 -0.25 51.9375 C-0.2380626 53.3613211 -0.22700299 54.78514981 -0.21679688 56.20898438 C-0.10423482 68.48606568 0.38689449 80.73788975 1 93 C-12.365 93.495 -12.365 93.495 -26 94 C-25.2782135 74.94483631 -23.6587025 55.99159752 -22 37 C-20.0061849 37.0213623 -18.01236979 37.04272461 -16.01855469 37.06408691 C-13.47370498 36.98329071 -11.37746249 36.39154843 -9 35.5 C-8.236875 35.2215625 -7.47375 34.943125 -6.6875 34.65625 C-6.130625 34.4396875 -5.57375 34.223125 -5 34 C-5 35.98 -5 37.96 -5 40 C-4.34 40 -3.68 40 -3 40 C-3.05800781 39.27296875 -3.11601563 38.5459375 -3.17578125 37.796875 C-3.60192961 28.29985431 -1.31135162 20.36535491 4.3125 12.625 C6.31530528 9.50952512 6.3461684 7.63476824 6 4 C4.02 3.01 2.04 2.02 0 1 C0 0.67 0 0.34 0 0 Z " fill="#FEE277" transform="translate(82,51)"/>
<path d="M0 0 C6.11932186 0.44775526 10.79208862 3.27544614 16.078125 6.1171875 C20.07408402 8.20667752 23.43714013 9.54371401 28 10 C28.33 9.34 28.66 8.68 29 8 C33.75 8.875 33.75 8.875 36 10 C36.825 9.835 37.65 9.67 38.5 9.5 C41 9 41 9 43 10 C42.34 11.65 41.68 13.3 41 15 C46.94 14.505 46.94 14.505 53 14 C54.26436876 17.1609219 55.28100082 19.76450369 56 23 C53 22 53 22 51.8125 19.9375 C51.544375 19.298125 51.27625 18.65875 51 18 C49.68 18 48.36 18 47 18 C47.825 18.37125 48.65 18.7425 49.5 19.125 C50.325 19.74375 51.15 20.3625 52 21 C52.67465097 26.03835085 51.30626055 28.79753449 48.625 33 C44.77258466 39.08776745 42.85559672 44.16604917 42.375 51.375 C42.30023438 52.43460938 42.22546875 53.49421875 42.1484375 54.5859375 C42.09945312 55.38257813 42.05046875 56.17921875 42 57 C41.34 57 40.68 57 40 57 C40 55.02 40 53.04 40 51 C39.43152344 51.28875 38.86304688 51.5775 38.27734375 51.875 C33.33622552 54.25069624 29.5994611 55.65876013 24 55 C21.5625 54 21.5625 54 20 53 C20 52.34 20 51.68 20 51 C20.76828125 50.43410156 21.5365625 49.86820313 22.328125 49.28515625 C28.43650759 44.06088167 30.10020784 34.35989094 30.8125 26.625 C30.89464346 25.08425511 30.96537145 23.5425444 31 22 C29.80375 21.979375 28.6075 21.95875 27.375 21.9375 C17.45297749 20.80892872 8.19811895 15.02450604 1.35546875 7.9921875 C-0.23838339 5.64963825 -0.71197406 3.80471164 -1 1 C-0.67 0.67 -0.34 0.34 0 0 Z " fill="#B95218" transform="translate(37,34)"/>
<path d="M0 0 C11.52725488 -0.06975574 23.05445888 -0.12294059 34.58188248 -0.15543652 C39.93552397 -0.1710392 45.2890202 -0.19217812 50.64257812 -0.22631836 C55.81676394 -0.25910523 60.99081072 -0.27689353 66.16509247 -0.28463173 C68.13128597 -0.29014072 70.09747255 -0.30089771 72.06360626 -0.31719017 C82.54549862 -0.40053152 91.89389337 -0.12799266 102 3 C102.66 3 103.32 3 104 3 C105.73681314 10.44348488 104.34773428 14.17326681 100.703125 20.78125 C97.95209552 25.98044332 96.01154471 31.481603 94 37 C90.31987256 35.0018552 87.96913647 33.01838339 85.375 29.75 C79.03974975 22.39871905 70.67268862 18.09089086 62 14 C62.66 9.71 63.32 5.42 64 1 C59.38 1 54.76 1 50 1 C50 1.99 50 2.98 50 4 C46.91190305 5.76462683 45.76687864 6 42 6 C42.33 5.01 42.66 4.02 43 3 C43.99 3 44.98 3 46 3 C46 2.34 46 1.68 46 1 C30.82 1 15.64 1 0 1 C0 0.67 0 0.34 0 0 Z " fill="#6178E2" transform="translate(32,7)"/>
<path d="M0 0 C4.59475893 0.65173886 7.95222428 1.89025905 11.1796875 5.30859375 C13.08275505 7.87738639 14.89711285 10.48912467 16.68457031 13.13916016 C18.14721739 15.20825741 19.70954931 17.16810481 21.3046875 19.13671875 C21.86502686 19.83966064 22.42536621 20.54260254 23.00268555 21.2668457 C24.1102653 22.65272473 25.23124655 24.0280177 26.36645508 25.39135742 C27.8052477 27.2317273 29.03695787 28.8708056 30 31 C29.33203125 34.4765625 29.33203125 34.4765625 28 37 C29.65 37.33 31.3 37.66 33 38 C31.52797864 41.4347165 30.12687289 43.8893608 27 46 C23.59988171 46.03742269 20.34409856 45.58713181 17 45 C17 44.34 17 43.68 17 43 C13.535 43.495 13.535 43.495 10 44 C9.54625 43.34 9.0925 42.68 8.625 42 C8.08875 41.34 7.5525 40.68 7 40 C6.34 40 5.68 40 5 40 C4.34 41.98 3.68 43.96 3 46 C2.01 46 1.02 46 0 46 C0 33.13 0 20.26 0 7 C-1.32 6.34 -2.64 5.68 -4 5 C-2.68 4.34 -1.36 3.68 0 3 C0 2.01 0 1.02 0 0 Z " fill="#81AFF3" transform="translate(7,73)"/>
<path d="M0 0 C0.66 0 1.32 0 2 0 C3.35439668 2.70879335 3.06501451 5.00933268 3 8 C3.73605469 8.13277344 4.47210938 8.26554687 5.23046875 8.40234375 C6.20628906 8.57894531 7.18210937 8.75554688 8.1875 8.9375 C9.63189453 9.19853516 9.63189453 9.19853516 11.10546875 9.46484375 C12.97351055 9.8102172 14.8321024 10.21410822 16.671875 10.6875 C20.27885161 11.17165793 22.11883575 9.02294511 25 7 C26.32 7 27.64 7 29 7 C28.99097656 7.73605469 28.98195312 8.47210938 28.97265625 9.23046875 C28.98256689 14.98491792 28.98256689 14.98491792 31.625 19.84375 C33.74709016 21.37332247 33.74709016 21.37332247 37 23 C36.625 25.4375 36.625 25.4375 36 28 C32.78548731 29.60725635 29.56387464 29.05748185 26 29 C26 30.32 26 31.64 26 33 C29.63 33 33.26 33 37 33 C37 33.99 37 34.98 37 36 C35.58847656 35.98259766 35.58847656 35.98259766 34.1484375 35.96484375 C32.28058594 35.95130859 32.28058594 35.95130859 30.375 35.9375 C29.14523438 35.92589844 27.91546875 35.91429687 26.6484375 35.90234375 C23.32276209 35.99136076 20.25952412 36.36313913 17 37 C17.66 36.67 18.32 36.34 19 36 C18.505 35.2575 18.01 34.515 17.5 33.75 C16 31 16 31 16 27 C15.01 27.495 15.01 27.495 14 28 C12.29297265 28.06996014 10.58331997 28.08440154 8.875 28.0625 C7.96492188 28.05347656 7.05484375 28.04445313 6.1171875 28.03515625 C5.06917969 28.01775391 5.06917969 28.01775391 4 28 C4.66 26.35 5.32 24.7 6 23 C4.72125 23.20625 3.4425 23.4125 2.125 23.625 C-0.0546875 23.9765625 -0.0546875 23.9765625 -2 24 C-2.66 23.34 -3.32 22.68 -4 22 C-5.32 22 -6.64 22 -8 22 C-7.01 22.66 -6.02 23.32 -5 24 C-9.82360189 24.19294408 -13.49646738 23.75747614 -18 22 C-18 21.67 -18 21.34 -18 21 C-16.35 21 -14.7 21 -13 21 C-12.33844386 17.32468809 -11.9337966 14.38986449 -12.5625 10.6875 C-12.706875 9.800625 -12.85125 8.91375 -13 8 C-11 6 -11 6 -8.1875 5.6875 C-4.15896197 4.81859964 -2.74491167 2.97365431 0 0 Z " fill="#FEA14A" transform="translate(74,21)"/>
<path d="M0 0 C3.63 0 7.26 0 11 0 C11 2.97 11 5.94 11 9 C10.01 9.33 9.02 9.66 8 10 C6.82397543 14.31209008 6.69479163 17.70049008 8 22 C9.96532881 23.61030167 11.93813742 24.78013261 14.1875 25.95703125 C16 27 16 27 17 29 C15.19987561 31.08435456 14.20423888 31.94383431 11.5 32.6875 C8.03273728 34.50781293 7.64286423 36.71110664 6.48046875 40.3203125 C6.24263672 41.15175781 6.24263672 41.15175781 6 42 C3.553738 41.57823069 2.3070244 41.34925125 0.63671875 39.44921875 C-1.84466082 37.25210223 -3.95082497 37.70809113 -7.1875 37.8125 C-8.81751953 37.85310547 -8.81751953 37.85310547 -10.48046875 37.89453125 C-11.31191406 37.92933594 -12.14335937 37.96414062 -13 38 C-12.53199289 33.94393835 -12.12046792 30.53411321 -10 27 C-11.32 25.02 -12.64 23.04 -14 21 C-14 22.32 -14 23.64 -14 25 C-14 26.32 -14 27.64 -14 29 C-15.0725 28.938125 -16.145 28.87625 -17.25 28.8125 C-21.23020127 29.01151006 -22.10502216 29.51859042 -25 32 C-25.99 32 -26.98 32 -28 32 C-28.33 29.69 -28.66 27.38 -29 25 C-31.475 24.01 -31.475 24.01 -34 23 C-33.67 21.68 -33.34 20.36 -33 19 C-31.02 19 -29.04 19 -27 19 C-26.67 17.02 -26.34 15.04 -26 13 C-24.68 13 -23.36 13 -22 13 C-21.34 14.32 -20.68 15.64 -20 17 C-16.535 16.505 -16.535 16.505 -13 16 C-13 16.66 -13 17.32 -13 18 C-5.9736414 18.69351236 -5.9736414 18.69351236 0.125 15.625 C2.19374606 13.26640084 2.19374606 13.26640084 2 11 C0.68 10.67 -0.64 10.34 -2 10 C-1.34 6.7 -0.68 3.4 0 0 Z " fill="#FBBF0C" transform="translate(37,100)"/>
<path d="M0 0 C0.33 0 0.66 0 1 0 C1.14688806 4.12461681 1.23460044 8.24854924 1.3125 12.375 C1.35439453 13.53128906 1.39628906 14.68757813 1.43945312 15.87890625 C1.56403201 24.69909137 0.07376255 31.44617667 -5.91430664 38.13989258 C-11.90440203 44.00570883 -18.27856088 46.1407641 -26.5625 46.1875 C-28.0422308 46.14020267 -29.52185988 46.08331896 -31 46 C-31 44.35 -31 42.7 -31 41 C-29.02 41.99 -27.04 42.98 -25 44 C-25.05800781 43.39671875 -25.11601563 42.7934375 -25.17578125 42.171875 C-25.31550362 39.69679296 -25.36047141 37.45544644 -25 35 C-22.5 32.5625 -22.5 32.5625 -20 31 C-20 30.34 -20 29.68 -20 29 C-21.98 28.67 -23.96 28.34 -26 28 C-26.9921875 25.43359375 -26.9921875 25.43359375 -27 22 C-24.75976979 19.22092957 -21.96558611 17.20024562 -19.125 15.0625 C-18.34447266 14.44930908 -17.56394531 13.83611816 -16.75976562 13.2043457 C-14.52047664 11.45053122 -12.26266199 9.72348338 -10 8 C-8.1660296 6.56331286 -6.33250963 5.1260499 -4.5 3.6875 C-3.8296875 3.17574219 -3.159375 2.66398437 -2.46875 2.13671875 C-1.03247974 1.07461772 -1.03247974 1.07461772 0 0 Z " fill="#B2D4FA" transform="translate(142,98)"/>
<path d="M0 0 C4.92114804 0.5352306 8.34369939 2.05354251 12.625 4.5 C17.65063625 7.35840383 21.32182729 9.14150131 27.109375 9.09765625 C28.24052734 9.09282227 28.24052734 9.09282227 29.39453125 9.08789062 C30.17183594 9.07951172 30.94914062 9.07113281 31.75 9.0625 C32.54277344 9.05798828 33.33554688 9.05347656 34.15234375 9.04882812 C36.10159508 9.03708565 38.05080738 9.01915146 40 9 C39.67 10.65 39.34 12.3 39 14 C42.25085095 16.04339202 45.42605032 17.61013068 49 19 C50 20 50 20 50.27734375 22.61328125 C49.94347782 26.69020747 48.48494416 29.66239202 46.5625 33.1875 C43.67516173 38.64771395 41.90559749 42.96849047 41.4375 49.1875 C41.35371094 50.27417969 41.26992187 51.36085937 41.18359375 52.48046875 C41.09271484 53.72763672 41.09271484 53.72763672 41 55 C40.34 55 39.68 55 39 55 C38.505 51.535 38.505 51.535 38 48 C36.60946214 47.91905951 36.60946214 47.91905951 34.1875 49.5625 C31 51 31 51 28.625 50.6875 C27.820625 50.3471875 27.820625 50.3471875 27 50 C27.845625 49.525625 28.69125 49.05125 29.5625 48.5625 C37.04624247 43.52026216 41.48852944 35.49309131 44 27 C44.36353679 25.00526891 44.70391184 23.00585217 45 21 C43.77925781 20.91363281 42.55851562 20.82726562 41.30078125 20.73828125 C27.58896794 19.62670131 15.61581414 17.48913576 5 8 C4.4740625 7.54238281 3.948125 7.08476563 3.40625 6.61328125 C2 5.3125 2 5.3125 0 3 C0 2.01 0 1.02 0 0 Z " fill="#F5A31B" transform="translate(38,36)"/>
<path d="M0 0 C12.61265179 2.93627872 20.37541355 11.12448224 29.0625 20.140625 C30.99879154 22.14093293 30.99879154 22.14093293 33.75 23.625 C34.4925 24.07875 35.235 24.5325 36 25 C36 25.66 36 26.32 36 27 C30.25 27.125 30.25 27.125 28 26 C28 25.34 28 24.68 28 24 C27.01 24.495 27.01 24.495 26 25 C26.495 25.433125 26.99 25.86625 27.5 26.3125 C29 28 29 28 29 31 C26.5625 30.3125 26.5625 30.3125 24 29 C23.1875 26.375 23.1875 26.375 23 24 C22.731875 24.556875 22.46375 25.11375 22.1875 25.6875 C20.89877353 28.19712523 19.47073522 30.59334236 18 33 C14.7 32.67 11.4 32.34 8 32 C8 30.68 8 29.36 8 28 C11.3 27.34 14.6 26.68 18 26 C18 24.68 18 23.36 18 22 C16.45372669 20.82763688 16.45372669 20.82763688 14.5 19.9375 C12.55859375 18.703125 12.55859375 18.703125 11 17 C10.37272546 13.26798003 10.58630331 9.74953664 11 6 C9.906875 6.45375 8.81375 6.9075 7.6875 7.375 C7.07261719 7.63023438 6.45773438 7.88546875 5.82421875 8.1484375 C3.73466068 9.06806692 3.73466068 9.06806692 1 11 C-1.32421875 10.72265625 -1.32421875 10.72265625 -4 10 C-5.43279297 9.62681641 -5.43279297 9.62681641 -6.89453125 9.24609375 C-7.85746094 8.97925781 -8.82039063 8.71242188 -9.8125 8.4375 C-10.78832031 8.16808594 -11.76414062 7.89867187 -12.76953125 7.62109375 C-13.87361328 7.31365234 -13.87361328 7.31365234 -15 7 C-15.1875 4.625 -15.1875 4.625 -15 2 C-10.27691377 -1.14872415 -5.52855254 -0.52904809 0 0 Z " fill="#FEDE74" transform="translate(92,22)"/>
<path d="M0 0 C3.37497326 1.09686631 6.69752929 2.26691534 10 3.5625 C13.30522541 4.82102814 16.47776094 5.55972012 20 6 C20.83117474 15.05056935 18.93051334 22.86217661 15 31 C14.01 31.66 13.02 32.32 12 33 C12.00902344 32.01 12.01804687 31.02 12.02734375 30 C11.92556588 22.55513745 11.55983428 16.99240358 5.984375 11.515625 C3.7541001 9.81218669 1.43411907 8.39332333 -1 7 C-0.57847656 7.68707031 -0.15695313 8.37414063 0.27734375 9.08203125 C0.82519531 9.98308594 1.37304688 10.88414063 1.9375 11.8125 C2.75541016 13.15248047 2.75541016 13.15248047 3.58984375 14.51953125 C8.8452132 23.76374067 5.76866561 36.50703337 4.1875 46.5 C4.02185547 47.62019531 3.85621094 48.74039063 3.68554688 49.89453125 C2.4937449 57.69296383 0.87362729 65.33810399 -1 73 C-1.99 72.67 -2.98 72.34 -4 72 C-4.27748242 70.58845901 -4.52093516 69.17020201 -4.75 67.75 C-4.88921875 66.96109375 -5.0284375 66.1721875 -5.171875 65.359375 C-4.9330667 62.08118833 -3.31914937 61.23785078 -1 59 C1.90068266 51.58585513 2.46900694 43.11636914 3.3125 35.25 C3.41320801 34.37545166 3.51391602 33.50090332 3.61767578 32.59985352 C4.45962303 23.740995 3.25126382 17.28401111 -2 10 C-2.75 7.625 -2.75 7.625 -3 6 C-1.68 6 -0.36 6 1 6 C0.67 4.02 0.34 2.04 0 0 Z " fill="#E68B60" transform="translate(48,50)"/>
<path d="M0 0 C1.32 0.33 2.64 0.66 4 1 C4.33 2.98 4.66 4.96 5 7 C6.98 7 8.96 7 11 7 C11 8.32 11 9.64 11 11 C10.360625 11.391875 9.72125 11.78375 9.0625 12.1875 C6.08894091 14.80062768 6.34603721 17.31896977 6.078125 21.13671875 C6.05234375 21.75160156 6.0265625 22.36648437 6 23 C4.35 22.34 2.7 21.68 1 21 C0.67 22.65 0.34 24.3 0 26 C-2.64 25.67 -5.28 25.34 -8 25 C-8 25.99 -8 26.98 -8 28 C-14.15234375 27.4140625 -14.15234375 27.4140625 -16 27 C-16.33 26.34 -16.66 25.68 -17 25 C-16.34 25 -15.68 25 -15 25 C-15.33 23.35 -15.66 21.7 -16 20 C-15.01 20 -14.02 20 -13 20 C-12.67 19.34 -12.34 18.68 -12 18 C-11.67 19.32 -11.34 20.64 -11 22 C-10.34 21.67 -9.68 21.34 -9 21 C-8.45537858 18.98072747 -8.45537858 18.98072747 -8.25 16.625 C-8.15203125 15.83351562 -8.0540625 15.04203125 -7.953125 14.2265625 C-7.80675687 11.70804499 -7.80675687 11.70804499 -10 9 C-10 8.01 -10 7.02 -10 6 C-7.36 6 -4.72 6 -2 6 C-1.855625 5.38125 -1.71125 4.7625 -1.5625 4.125 C-1 2 -1 2 0 0 Z " fill="#FEF007" transform="translate(111,119)"/>
<path d="M0 0 C0.07734375 0.88751953 0.07734375 0.88751953 0.15625 1.79296875 C0.837294 6.81216599 0.837294 6.81216599 3.9140625 10.640625 C5.35486442 11.4857597 6.82415727 12.28459053 8.3203125 13.02734375 C8.87460937 13.34832031 9.42890625 13.66929688 10 14 C10 14.66 10 15.32 10 16 C5.545 17.485 5.545 17.485 1 19 C1 21.31 1 23.62 1 26 C0.01 26 -0.98 26 -2 26 C-3.0209375 24.9790625 -3.0209375 24.9790625 -4.0625 23.9375 C-8.39583205 21.07934482 -12.06071023 22.11764144 -17 23 C-16.50168276 19.31245243 -15.89932357 17.39509338 -13 15 C-13.28875 14.46375 -13.5775 13.9275 -13.875 13.375 C-15.16711808 10.64719516 -16.08558592 7.87387282 -17 5 C-9.25 5.875 -9.25 5.875 -7 7 C-6.731875 6.401875 -6.46375 5.80375 -6.1875 5.1875 C-3.37142857 0 -3.37142857 0 0 0 Z " fill="#FFFD08" transform="translate(42,114)"/>
<path d="M0 0 C-1.39034846 4.8662196 -3.79456444 7.25029214 -8 10 C-10.97 9.505 -10.97 9.505 -14 9 C-14 25.17 -14 41.34 -14 58 C-15.65 58 -17.3 58 -19 58 C-19 58.66 -19 59.32 -19 60 C-19.66 60 -20.32 60 -21 60 C-20.3514914 40.94726468 -18.6581623 21.98541234 -17 3 C-13.98448181 3.03204346 -13.98448181 3.03204346 -10.96896362 3.06408691 C-8.7181138 2.99082501 -7.12272169 2.53231551 -5.125 1.5 C-2 0 -2 0 0 0 Z " fill="#FED261" transform="translate(77,85)"/>
<path d="M0 0 C0.495 2.475 0.495 2.475 1 5 C0.34 4.01 -0.32 3.02 -1 2 C-5.61329836 0.67288677 -9.6847403 1.31308299 -13.89453125 3.51171875 C-19.62190815 7.49972811 -24.53844376 11.88680293 -28 18 C-28.54140625 18.92683594 -29.0828125 19.85367188 -29.640625 20.80859375 C-32.12921099 26.82506943 -31.35148646 33.61227898 -31.25 40 C-31.23806817 41.42642533 -31.22700772 42.85285819 -31.21679688 44.27929688 C-31.10750941 56.19770244 -30.66639892 68.10001937 -30 80 C-31.65 80 -33.3 80 -35 80 C-35 62.84 -35 45.68 -35 28 C-34.34 28 -33.68 28 -33 28 C-32.95875 26.700625 -32.9175 25.40125 -32.875 24.0625 C-31.91386218 15.67558506 -26.42127922 9.67822687 -20.0625 4.51171875 C-13.14016119 -0.56204094 -8.52571136 -1.60730624 0 0 Z " fill="#FED05F" transform="translate(113,63)"/>
<path d="M0 0 C2.31332186 2.83907682 4.10457877 5.41831508 5 9 C3.6875 11 3.6875 11 2 13 C1.61799233 14.6561881 1.27853011 16.32330388 1 18 C2.22976562 17.80470703 2.22976562 17.80470703 3.484375 17.60546875 C6.71168143 17.19240441 9.74659623 16.87886263 13 17 C15.75 19.4375 15.75 19.4375 17 22 C16.67 22.66 16.34 23.32 16 24 C5.68504391 24.58142759 -2.00679603 22.68819108 -10 16 C-11.4375 13.6875 -11.4375 13.6875 -12 12 C-9.9375 9.9375 -9.9375 9.9375 -7 8 C-3.1875 8.25 -3.1875 8.25 0 9 C-0.66 6.69 -1.32 4.38 -2 2 C-1.34 1.34 -0.68 0.68 0 0 Z " fill="#BDDDF8" transform="translate(23,120)"/>
<path d="M0 0 C0.33 0 0.66 0 1 0 C1.12375 1.6396875 1.12375 1.6396875 1.25 3.3125 C1.63689209 7.03276664 1.63689209 7.03276664 4.0625 8.9375 C4.701875 9.288125 5.34125 9.63875 6 10 C5.67 10.99 5.34 11.98 5 13 C4.01 13.33 3.02 13.66 2 14 C1.67 16.31 1.34 18.62 1 21 C0.01 21.33 -0.98 21.66 -2 22 C-2.66 21.34 -3.32 20.68 -4 20 C-5.32 20 -6.64 20 -8 20 C-7.01 20.66 -6.02 21.32 -5 22 C-9.82360189 22.19294408 -13.49646738 21.75747614 -18 20 C-18 19.67 -18 19.34 -18 19 C-17.236875 19.0825 -16.47375 19.165 -15.6875 19.25 C-12.9649249 19.23723073 -12.9649249 19.23723073 -11.125 17.5625 C-9.40899001 13.65381057 -10.26997937 10.11626088 -11 6 C-9.9275 5.7525 -8.855 5.505 -7.75 5.25 C-3.97861295 3.99287098 -2.54254758 2.93370875 0 0 Z " fill="#FCA14C" transform="translate(74,23)"/>
<path d="M0 0 C6.93 0.495 6.93 0.495 14 1 C13.57664615 7.49142565 11.08900201 12.33492989 8 18 C5.03 18 2.06 18 -1 18 C-2.6648785 11.81782878 -1.06731231 6.21552464 0 0 Z " fill="#D25822" transform="translate(68,57)"/>
<path d="M0 0 C0.33 1.32 0.66 2.64 1 4 C0.67 3.34 0.34 2.68 0 2 C-4.85967024 4.50346649 -8.27856704 8.08552441 -12 12 C-12 8.41087588 -11.33563446 7.89142971 -9 5.3125 C-8.443125 4.68988281 -7.88625 4.06726563 -7.3125 3.42578125 C-6.6628125 2.72001953 -6.6628125 2.72001953 -6 2 C-15.01110114 4.73551285 -20.92088827 9.7087978 -25.9921875 17.6171875 C-29.6026216 26.15348518 -29.10713375 34.6448979 -28.6875 43.75 C-28.63259144 45.12504364 -28.57864468 46.500126 -28.52563477 47.87524414 C-28.36605261 51.9176056 -28.18454811 55.95870051 -28 60 C-27.94908203 61.15161621 -27.89816406 62.30323242 -27.84570312 63.48974609 C-27.58635399 69.32776606 -27.30577606 75.16423135 -27 81 C-27.66 81 -28.32 81 -29 81 C-30.3616775 67.74537326 -31.25477831 54.4846572 -31.40942383 41.16064453 C-31.42795375 39.77589567 -31.45511879 38.391232 -31.49145508 37.00683594 C-31.78763509 24.96704538 -29.24620933 16.65309933 -20.94140625 7.828125 C-14.27841586 1.55392077 -9.25567451 -1.04343721 0 0 Z M-1 4 C-1 7.96130371 -2.34877125 8.82914401 -5 11.6875 C-5.7425 12.49574219 -6.485 13.30398437 -7.25 14.13671875 C-7.8275 14.75160156 -8.405 15.36648437 -9 16 C-9 12.03869629 -7.65122875 11.17085599 -5 8.3125 C-4.2575 7.50425781 -3.515 6.69601563 -2.75 5.86328125 C-2.1725 5.24839844 -1.595 4.63351563 -1 4 Z " fill="#FA944C" transform="translate(112,64)"/>
<path d="M0 0 C0.54527344 0.19335938 1.09054688 0.38671875 1.65234375 0.5859375 C7.0438052 2.44760453 12.40921726 3.87655666 18 5 C18.86477331 14.41642046 16.51375291 21.40385448 13 30 C12.67 30 12.34 30 12 30 C12.06960937 29.31035156 12.13921875 28.62070313 12.2109375 27.91015625 C12.65726985 20.16310184 11.06212748 15.83740827 6 10 C4.8903775 8.8803809 3.76647868 7.77462255 2.625 6.6875 C0 4 0 4 0 0 Z " fill="#FDDF73" transform="translate(50,51)"/>
<path d="M0 0 C0.33 0.66 0.66 1.32 1 2 C-3.28657122 9.20143965 -8.40855966 14.13435552 -16.578125 16.54296875 C-20.71992835 17.32456712 -24.80608355 17.2364003 -29 17 C-29 15.35 -29 13.7 -29 12 C-27.02 12.66 -25.04 13.32 -23 14 C-22.93627197 13.39317383 -22.87254395 12.78634766 -22.80688477 12.16113281 C-22 10 -22 10 -19.86694336 8.62792969 C-18.49227905 8.03093262 -18.49227905 8.03093262 -17.08984375 7.421875 C-15.60581055 6.76445312 -15.60581055 6.76445312 -14.09179688 6.09375 C-13.05087891 5.6503125 -12.00996094 5.206875 -10.9375 4.75 C-9.89271484 4.29109375 -8.84792969 3.8321875 -7.77148438 3.359375 C-5.18646723 2.2262168 -2.59621802 1.10719667 0 0 Z " fill="#92CAFD" transform="translate(140,127)"/>
<path d="M0 0 C1.32 0.66 2.64 1.32 4 2 C4 2.66 4 3.32 4 4 C6.31 4 8.62 4 11 4 C10.814375 4.886875 10.62875 5.77375 10.4375 6.6875 C10.01957516 9.85178811 10.19222258 11.94839642 11 15 C9.9275 14.938125 8.855 14.87625 7.75 14.8125 C3.76979873 15.01151006 2.89497784 15.51859042 0 18 C-0.99 18 -1.98 18 -3 18 C-3.33 15.69 -3.66 13.38 -4 11 C-3.34 10.67 -2.68 10.34 -2 10 C-4.475 9.01 -4.475 9.01 -7 8 C-6.67 7.34 -6.34 6.68 -6 6 C-3.4375 5.375 -3.4375 5.375 -1 5 C-0.67 3.35 -0.34 1.7 0 0 Z " fill="#FAEE11" transform="translate(12,114)"/>
<path d="M0 0 C5.27341601 1.43820437 8.49391009 5.0038115 12 9 C13.59412284 12.18824568 13.10174735 15.62896662 13.0625 19.125 C13.05798828 19.87910156 13.05347656 20.63320312 13.04882812 21.41015625 C13.03703499 23.27347127 13.01909942 25.13674555 13 27 C12.360625 27.28875 11.72125 27.5775 11.0625 27.875 C8.84793921 28.82823451 8.84793921 28.82823451 8 31 C7.34 31 6.68 31 6 31 C6.05800781 29.81664063 6.11601563 28.63328125 6.17578125 27.4140625 C6.497184 17.94719943 6.27420902 11.1793471 1 3 C0.67 2.01 0.34 1.02 0 0 Z " fill="#FEE27C" transform="translate(47,57)"/>
<path d="M0 0 C3.63 0 7.26 0 11 0 C11 2.97 11 5.94 11 9 C9.68 9 8.36 9 7 9 C6.67 9.99 6.34 10.98 6 12 C3.36 11.34 0.72 10.68 -2 10 C-1.34 6.7 -0.68 3.4 0 0 Z " fill="#FBEB13" transform="translate(37,100)"/>
<path d="M0 0 C0.66 0 1.32 0 2 0 C3.35439668 2.70879335 3.06501451 5.00933268 3 8 C3.73605469 8.13277344 4.47210938 8.26554687 5.23046875 8.40234375 C6.20628906 8.57894531 7.18210937 8.75554688 8.1875 8.9375 C9.63189453 9.19853516 9.63189453 9.19853516 11.10546875 9.46484375 C12.96665537 9.80894978 14.82408265 10.17444085 16.67578125 10.56640625 C19.09746717 11.09169534 19.09746717 11.09169534 22 11 C21.01 11.99 20.02 12.98 19 14 C15.37 13.01 11.74 12.02 8 11 C8 12.32 8 13.64 8 15 C7.34 15 6.68 15 6 15 C5.731875 14.38125 5.46375 13.7625 5.1875 13.125 C4.04443152 10.7004767 4.04443152 10.7004767 1 9 C0.3125 5.875 0.3125 5.875 0 3 C-0.70125 3.825 -1.4025 4.65 -2.125 5.5 C-5 8 -5 8 -8.3125 8.3125 C-9.6428125 8.1578125 -9.6428125 8.1578125 -11 8 C-10.80921875 8.59167969 -10.6184375 9.18335938 -10.421875 9.79296875 C-9.73714898 12.23330044 -9.19459403 14.47027756 -9 17 C-10.875 20.0625 -10.875 20.0625 -13 22 C-12.814375 20.80375 -12.62875 19.6075 -12.4375 18.375 C-12.05633109 15.46987476 -12.06994883 13.580307 -12.5625 10.625 C-12.706875 9.75875 -12.85125 8.8925 -13 8 C-11 6 -11 6 -8.1875 5.6875 C-4.15896197 4.81859964 -2.74491167 2.97365431 0 0 Z " fill="#FD5316" transform="translate(74,21)"/>
<path d="M0 0 C8.68679903 4.50426616 14.83046351 9.40547513 21.2265625 16.84375 C24.09955032 19.9212556 26.72980902 21.57705955 30.53125 23.3125 C30.20125 24.6325 29.87125 25.9525 29.53125 27.3125 C29.53125 26.3225 29.53125 25.3325 29.53125 24.3125 C28.644375 24.085625 27.7575 23.85875 26.84375 23.625 C22.19145413 21.78163748 19.61422189 18.49682455 16.27734375 14.84765625 C9.16441383 7.22923893 0.40340709 0.67176623 -10.37890625 0.1796875 C-11.93931641 0.18355469 -11.93931641 0.18355469 -13.53125 0.1875 C-15.09552734 0.18363281 -15.09552734 0.18363281 -16.69140625 0.1796875 C-19.55555628 0.19112843 -19.55555628 0.19112843 -22.46875 1.3125 C-22.79875 0.6525 -23.12875 -0.0075 -23.46875 -0.6875 C-15.58251614 -4.22710227 -7.77452589 -3.54282192 0 0 Z " fill="#E78D61" transform="translate(99.46875,22.6875)"/>
<path d="M0 0 C0.66 0.66 1.32 1.32 2 2 C5.59679066 1.67673447 5.59679066 1.67673447 9 1 C10.43088528 3.86177057 9.59991697 5.93375773 9 9 C6.36 8.67 3.72 8.34 1 8 C1 8.99 1 9.98 1 11 C-5.15234375 10.4140625 -5.15234375 10.4140625 -7 10 C-7.33 9.34 -7.66 8.68 -8 8 C-7.34 8 -6.68 8 -6 8 C-6.33 6.35 -6.66 4.7 -7 3 C-6.01 3 -5.02 3 -4 3 C-3.67 2.34 -3.34 1.68 -3 1 C-2.67 2.32 -2.34 3.64 -2 5 C-1.34 4.67 -0.68 4.34 0 4 C0 2.68 0 1.36 0 0 Z " fill="#FFDF07" transform="translate(102,136)"/>
<path d="M0 0 C0.763125 0.33 1.52625 0.66 2.3125 1 C4.99069135 2.17436686 4.99069135 2.17436686 8 2 C4.535 4.97 4.535 4.97 1 8 C5.05281712 6.77472971 8.44360764 5.30119506 12 3 C10.25421409 7.21824412 8.18997673 8.38452071 4.16015625 10.2421875 C0.07600454 11.67496405 -3.45403269 11.634243 -7.4375 10 C-7.953125 9.67 -8.46875 9.34 -9 9 C-9 8.34 -9 7.68 -9 7 C-7.34151823 5.98648336 -5.67334039 4.98879205 -4 4 C-2.63015802 2.70420353 -1.2848951 1.38007251 0 0 Z " fill="#BC5619" transform="translate(66,78)"/>
<path d="M0 0 C0.66 0.33 1.32 0.66 2 1 C1.5397483 19.77877773 -0.02177991 38.33252517 -2 57 C-2.66 57 -3.32 57 -4 57 C-3.3514914 37.94726468 -1.6581623 18.98541234 0 0 Z " fill="#FA984E" transform="translate(60,88)"/>
<path d="M0 0 C-0.00902344 0.73605469 -0.01804687 1.47210937 -0.02734375 2.23046875 C-0.01743311 7.98491792 -0.01743311 7.98491792 2.625 12.84375 C4.74709016 14.37332247 4.74709016 14.37332247 8 16 C7.67 17.65 7.34 19.3 7 21 C3.7 21.66 0.4 22.32 -3 23 C-3.33 24.32 -3.66 25.64 -4 27 C-4.66 27 -5.32 27 -6 27 C-5.67 24.36 -5.34 21.72 -5 19 C-1.7 18.67 1.6 18.34 5 18 C2.4837822 15.39391727 -0.05134359 13.10618315 -3 11 C-2.125 3.25 -2.125 3.25 -1 1 C-1.99 1.66 -2.98 2.32 -4 3 C-4.99 2.67 -5.98 2.34 -7 2 C-4 0 -4 0 0 0 Z " fill="#FA5B17" transform="translate(103,28)"/>
<path d="M0 0 C22.77 0 45.54 0 69 0 C69 0.33 69 0.66 69 1 C62.73 1 56.46 1 50 1 C50 1.99 50 2.98 50 4 C46.91190305 5.76462683 45.76687864 6 42 6 C42.33 5.01 42.66 4.02 43 3 C43.99 3 44.98 3 46 3 C46 2.34 46 1.68 46 1 C30.82 1 15.64 1 0 1 C0 0.67 0 0.34 0 0 Z " fill="#6081E9" transform="translate(32,7)"/>
<path d="M0 0 C0.33 0.99 0.66 1.98 1 3 C0.34 3.66 -0.32 4.32 -1 5 C-5.01012674 12.57468385 -2.59638693 21.33522647 -1.0625 29.3125 C-0.88009766 30.30056641 -0.69769531 31.28863281 -0.50976562 32.30664062 C0.4987444 37.71501953 0.4987444 37.71501953 2 43 C1.01 43 0.02 43 -1 43 C-7.33054593 11.98076485 -7.33054593 11.98076485 -5 4 C-2.4375 1.6875 -2.4375 1.6875 0 0 Z " fill="#EB9460" transform="translate(107,82)"/>
<path d="M0 0 C0.33 0 0.66 0 1 0 C0.62246302 10.68429662 -1.50075699 20.64267198 -4 31 C-4.99 30.67 -5.98 30.34 -7 30 C-7.27748242 28.58845901 -7.52093516 27.17020201 -7.75 25.75 C-7.88921875 24.96109375 -8.0284375 24.1721875 -8.171875 23.359375 C-8 21 -8 21 -6.15625 19.25 C-3.04081442 15.9991107 -2.62503107 12.57494864 -1.75 8.25 C-1.57726563 7.45722656 -1.40453125 6.66445312 -1.2265625 5.84765625 C-0.80445352 3.90126485 -0.40041729 1.95096936 0 0 Z " fill="#F9944B" transform="translate(51,92)"/>
<path d="M0 0 C0.66 0 1.32 0 2 0 C1.34 1.65 0.68 3.3 0 5 C5.94 4.505 5.94 4.505 12 4 C13.26436876 7.1609219 14.28100082 9.76450369 15 13 C12 12 12 12 10.8125 9.9375 C10.4103125 8.9784375 10.4103125 8.9784375 10 8 C8.68 8 7.36 8 6 8 C6.825 8.37125 7.65 8.7425 8.5 9.125 C9.325 9.74375 10.15 10.3625 11 11 C11.3125 14.1875 11.3125 14.1875 11 17 C10.67 17 10.34 17 10 17 C9.6596875 15.576875 9.6596875 15.576875 9.3125 14.125 C8.33474826 10.85859083 8.33474826 10.85859083 5.6875 9.8125 C4.800625 9.544375 3.91375 9.27625 3 9 C1.3170608 8.02763513 -0.35443434 7.03435556 -2 6 C-1.49396008 3.83125748 -1.00016187 2.00032373 0 0 Z " fill="#E04C12" transform="translate(78,44)"/>
<path d="M0 0 C1.875 0.9375 1.875 0.9375 3.125 3.5 C3.3725 4.304375 3.62 5.10875 3.875 5.9375 C1.6875 8 1.6875 8 -1.125 9.9375 C-3.9375 9.6875 -3.9375 9.6875 -6.125 8.9375 C-6.125 6.6275 -6.125 4.3175 -6.125 1.9375 C-3.94811446 0.61581949 -2.57282067 -0.0756712 0 0 Z " fill="#FC5A1B" transform="translate(81.125,35.0625)"/>
<path d="M0 0 C1.9375 0.8125 1.9375 0.8125 4 2 C4.33 2.99 4.66 3.98 5 5 C8.465 4.505 8.465 4.505 12 4 C12.33 5.98 12.66 7.96 13 10 C12.34 8.68 11.68 7.36 11 6 C9.9275 6.0825 8.855 6.165 7.75 6.25 C4 6 4 6 1.5625 4 C1.046875 3.34 0.53125 2.68 0 2 C0 3.65 0 5.3 0 7 C-1.98 7.66 -3.96 8.32 -6 9 C-4.68 9.66 -3.36 10.32 -2 11 C-2 11.99 -2 12.98 -2 14 C-4.31 13.01 -6.62 12.02 -9 11 C-8.67 9.68 -8.34 8.36 -8 7 C-6.02 7 -4.04 7 -2 7 C-1.855625 6.030625 -1.71125 5.06125 -1.5625 4.0625 C-1 1 -1 1 0 0 Z " fill="#ECC029" transform="translate(12,112)"/>
<path d="M0 0 C2.31 0.66 4.62 1.32 7 2 C7 4.31 7 6.62 7 9 C4.69 9.33 2.38 9.66 0 10 C0 9.01 0 8.02 0 7 C-1.32 6.34 -2.64 5.68 -4 5 C-2.68 4.34 -1.36 3.68 0 3 C0 2.01 0 1.02 0 0 Z " fill="#F5DF15" transform="translate(7,73)"/>
<path d="M0 0 C5.37857373 4.19528751 10.41991525 8.53024204 13 15 C13.28109215 19.12603126 13.04142767 22.99050345 12 27 C11.34 27.33 10.68 27.66 10 28 C10.00902344 27.01 10.01804687 26.02 10.02734375 25 C9.98759484 15.95186236 9.98759484 15.95186236 5.625 8.25 C4.44529732 7.13555747 3.23825495 6.04900201 2 5 C0.9931898 4.0068569 -0.00915973 3.00907659 -1 2 C-0.67 1.34 -0.34 0.68 0 0 Z " fill="#FA954E" transform="translate(50,55)"/>
<path d="M0 0 C2.31 0 4.62 0 7 0 C7 0.99 7 1.98 7 3 C7.99 3.33 8.98 3.66 10 4 C9.525625 4.433125 9.05125 4.86625 8.5625 5.3125 C6.76313043 7.02309613 6.76313043 7.02309613 6 10 C3.69 9.34 1.38 8.68 -1 8 C-0.67 5.36 -0.34 2.72 0 0 Z " fill="#F1E220" transform="translate(115,97)"/>
<path d="M0 0 C1.19196962 3.57590885 0.76618616 4.10605975 -0.8125 7.375 C-1.99619792 9.85915516 -3.06593864 12.19781592 -3.9375 14.8125 C-5.43218034 17.88978305 -7.1038928 19.19797774 -10 21 C-13.8125 21.75 -13.8125 21.75 -17 22 C-16.29875 21.484375 -15.5975 20.96875 -14.875 20.4375 C-8.04219262 14.64446766 -4.04987666 7.94177941 0 0 Z " fill="#F39C12" transform="translate(82,65)"/>
<path d="M0 0 C0.66 0.33 1.32 0.66 2 1 C-3.91684902 7.86214442 -3.91684902 7.86214442 -8.4375 8.4375 C-9.283125 8.293125 -10.12875 8.14875 -11 8 C-10.80921875 8.59167969 -10.6184375 9.18335938 -10.421875 9.79296875 C-9.73714898 12.23330044 -9.19459403 14.47027756 -9 17 C-10.875 20.0625 -10.875 20.0625 -13 22 C-12.814375 20.80375 -12.62875 19.6075 -12.4375 18.375 C-12.05633109 15.46987476 -12.06994883 13.580307 -12.5625 10.625 C-12.706875 9.75875 -12.85125 8.8925 -13 8 C-11 6 -11 6 -8.1875 5.6875 C-4.16415503 4.81971971 -2.65913544 3.05018477 0 0 Z " fill="#E55033" transform="translate(74,21)"/>
<path d="M0 0 C3.9898809 0.62341889 7.43815415 1.90956733 11.1328125 3.4765625 C13.20087295 4.24446813 13.20087295 4.24446813 16 3 C18.5 2.3125 18.5 2.3125 21 2 C21.99 2.66 22.98 3.32 24 4 C26.64632287 3.6878236 26.64632287 3.6878236 29 3 C29 3.66 29 4.32 29 5 C20.74051769 7.75316077 11.70641857 6.56412751 3.890625 3.0703125 C2 2 2 2 0 0 Z " fill="#CA5318" transform="translate(49,40)"/>
<path d="M0 0 C0.33 0.66 0.66 1.32 1 2 C3.64 2 6.28 2 9 2 C8.75 3.875 8.75 3.875 8 6 C5.9375 7.25 5.9375 7.25 4 8 C4 7.34 4 6.68 4 6 C-0.00346023 5.55709077 -0.00346023 5.55709077 -2.25 8 C-2.8275 8.66 -3.405 9.32 -4 10 C-3.52449439 8.51965236 -3.04448784 7.04074979 -2.5625 5.5625 C-2.29566406 4.73878906 -2.02882812 3.91507812 -1.75390625 3.06640625 C-1 1 -1 1 0 0 Z " fill="#BB3E17" transform="translate(66,73)"/>
<path d="M0 0 C0.33 0.66 0.66 1.32 1 2 C-0.1796875 4.71484375 -0.1796875 4.71484375 -1.875 7.9375 C-4.64054838 13.23063097 -6.11338096 17.22063275 -6.5625 23.1875 C-6.64628906 24.27417969 -6.73007813 25.36085938 -6.81640625 26.48046875 C-6.87699219 27.31191406 -6.93757813 28.14335938 -7 29 C-7.66 29 -8.32 29 -9 29 C-10.67924634 20.77169295 -8.14808126 14.80134065 -4.4375 7.625 C-3.96280273 6.68333984 -3.96280273 6.68333984 -3.47851562 5.72265625 C-1.15546016 1.15546016 -1.15546016 1.15546016 0 0 Z " fill="#F99247" transform="translate(86,62)"/>
<path d="M0 0 C-0.33 2.31 -0.66 4.62 -1 7 C-3.97 6.67 -6.94 6.34 -10 6 C-9.67 5.34 -9.34 4.68 -9 4 C-8.34 4 -7.68 4 -7 4 C-7 3.01 -7 2.02 -7 1 C-3.375 -1.125 -3.375 -1.125 0 0 Z " fill="#F1C776" transform="translate(112,138)"/>
<path d="M0 0 C2.97 0.99 5.94 1.98 9 3 C8.54625 3.598125 8.0925 4.19625 7.625 4.8125 C6.36704087 6.50590652 5.17015276 8.24477086 4 10 C1.4375 7.8125 1.4375 7.8125 -1 5 C-0.8125 2.1875 -0.8125 2.1875 0 0 Z " fill="#8E9FE3" transform="translate(113,51)"/>
<path d="M0 0 C0.66 0 1.32 0 2 0 C2 0.66 2 1.32 2 2 C2.99 2 3.98 2 5 2 C5 3.65 5 5.3 5 7 C3.02 7.33 1.04 7.66 -1 8 C-1 7.01 -1 6.02 -1 5 C-1.66 5 -2.32 5 -3 5 C-1.125 1.125 -1.125 1.125 0 0 Z " fill="#EDDD21" transform="translate(27,32)"/>
<path d="M0 0 C1.32 0.33 2.64 0.66 4 1 C4.33 2.98 4.66 4.96 5 7 C6.98 7 8.96 7 11 7 C11 8.32 11 9.64 11 11 C10.01 11.66 9.02 12.32 8 13 C8 12.01 8 11.02 8 10 C7.38125 9.79375 6.7625 9.5875 6.125 9.375 C3.15346355 7.45224112 2.86975341 5.33405473 2 2 C0.68 3.32 -0.64 4.64 -2 6 C-1.49396008 3.83125748 -1.00016187 2.00032373 0 0 Z " fill="#F4CA31" transform="translate(111,119)"/>
<path d="M0 0 C1.32 0.33 2.64 0.66 4 1 C3.875 2.8125 3.875 2.8125 3 5 C0.0625 6.8125 0.0625 6.8125 -3 8 C-3.66 7.67 -4.32 7.34 -5 7 C-5 6.01 -5 5.02 -5 4 C-4.01 3.67 -3.02 3.34 -2 3 C-1.34 2.01 -0.68 1.02 0 0 Z " fill="#D15722" transform="translate(66,78)"/>
<path d="M0 0 C1.98 0 3.96 0 6 0 C6.33 1.98 6.66 3.96 7 6 C5.35 6.66 3.7 7.32 2 8 C0.4375 6.25 0.4375 6.25 -1 4 C-0.6875 1.75 -0.6875 1.75 0 0 Z " fill="#F7DA10" transform="translate(130,10)"/>
<path d="M0 0 C0.99 0 1.98 0 3 0 C3 0.66 3 1.32 3 2 C5.64 2.33 8.28 2.66 11 3 C11.33 2.34 11.66 1.68 12 1 C11.67 2.32 11.34 3.64 11 5 C9.35 5 7.7 5 6 5 C6 5.99 6 6.98 6 8 C4.35 8 2.7 8 1 8 C1.99 7.67 2.98 7.34 4 7 C3.525625 6.21625 3.05125 5.4325 2.5625 4.625 C1.66101977 3.11051322 0.78820515 1.5764103 0 0 Z " fill="#F59052" transform="translate(117,46)"/>
<path d="M0 0 C2.32472205 2.85306797 3.7508258 5.54074837 5 9 C4.01 9.495 4.01 9.495 3 10 C2.01 9.67 1.02 9.34 0 9 C-1.1875 5.4375 -1.1875 5.4375 -2 2 C-1.34 1.34 -0.68 0.68 0 0 Z " fill="#99C2E2" transform="translate(23,120)"/>
<path d="M0 0 C0.639375 0.70125 1.27875 1.4025 1.9375 2.125 C5.49799687 5.71636823 9.74812946 8.30436965 14 11 C13.67 12.32 13.34 13.64 13 15 C13 14.01 13 13.02 13 12 C12.113125 11.773125 11.22625 11.54625 10.3125 11.3125 C6.53598615 9.81614546 4.69461792 7.99401991 2 5 C1.34 4.34 0.68 3.68 0 3 C0 2.01 0 1.02 0 0 Z " fill="#E48B62" transform="translate(116,35)"/>
<path d="M0 0 C2.6486859 3.19668988 4.93992341 6.39486597 7 10 C2.25 9.125 2.25 9.125 0 8 C0 5.36 0 2.72 0 0 Z " fill="#789AE7" transform="translate(7,65)"/>
<path d="M0 0 C5.34844008 0.53484401 9.35796103 2.46690767 14 5 C10.29218328 6.23593891 9.32489747 5.5678132 5.8125 4.0625 C4.91144531 3.68222656 4.01039062 3.30195312 3.08203125 2.91015625 C2.39496094 2.60980469 1.70789062 2.30945312 1 2 C1.33 3.65 1.66 5.3 2 7 C0.4375 5.75 0.4375 5.75 -1 4 C-0.6875 1.8125 -0.6875 1.8125 0 0 Z " fill="#A9502C" transform="translate(37,34)"/>
<path d="M0 0 C1.23921302 2.97411124 2.30058404 5.85262818 3 9 C2.01 8.67 1.02 8.34 0 8 C-1.1875 5.4375 -1.1875 5.4375 -2 3 C-5.3 2.67 -8.6 2.34 -12 2 C-12 1.67 -12 1.34 -12 1 C-10.37512529 0.83211627 -8.75009558 0.66573213 -7.125 0.5 C-6.22007813 0.4071875 -5.31515625 0.314375 -4.3828125 0.21875 C-2 0 -2 0 0 0 Z " fill="#F76B1C" transform="translate(90,48)"/>
<path d="M0 0 C0.33 0.66 0.66 1.32 1 2 C-0.65 2.33 -2.3 2.66 -4 3 C-2.68 3.66 -1.36 4.32 0 5 C0 5.99 0 6.98 0 8 C-2.31 7.01 -4.62 6.02 -7 5 C-6.67 3.68 -6.34 2.36 -6 1 C-4.02 0.67 -2.04 0.34 0 0 Z " fill="#FCBE05" transform="translate(10,118)"/>
<path d="M0 0 C1.41687119 4.25061356 0.19320039 6.71851625 -1 11 C-3.41703243 8.58296757 -3.83849795 7.39154295 -4 4 C-2.0625 1.6875 -2.0625 1.6875 0 0 Z " fill="#B1C8E3" transform="translate(47,109)"/>
<path d="M0 0 C0.33 0.99 0.66 1.98 1 3 C0.34 3.66 -0.32 4.32 -1 5 C-1.33 5.845625 -1.66 6.69125 -2 7.5625 C-3 10 -3 10 -5 11 C-5.3125 7.75 -5.3125 7.75 -5 4 C-2.5 1.5625 -2.5 1.5625 0 0 Z " fill="#F9B361" transform="translate(107,82)"/>
<path d="M0 0 C1.32 0 2.64 0 4 0 C3.67 1.65 3.34 3.3 3 5 C1.68 5.33 0.36 5.66 -1 6 C-1.042721 4.33388095 -1.04063832 2.66617115 -1 1 C-0.67 0.67 -0.34 0.34 0 0 Z " fill="#FFDB70" transform="translate(78,37)"/>
<path d="M0 0 C0.66 0.99 1.32 1.98 2 3 C2.66 3 3.32 3 4 3 C4.33 2.34 4.66 1.68 5 1 C5.66 1.33 6.32 1.66 7 2 C7 3.32 7 4.64 7 6 C0.84765625 5.4140625 0.84765625 5.4140625 -1 5 C-1.33 4.34 -1.66 3.68 -2 3 C-1.34 3 -0.68 3 0 3 C0 2.01 0 1.02 0 0 Z " fill="#FEBA05" transform="translate(96,141)"/>
<path d="M0 0 C0.66 0.33 1.32 0.66 2 1 C1.34 4.3 0.68 7.6 0 11 C-0.99 10.67 -1.98 10.34 -3 10 C-2.21302675 6.58978257 -1.12880057 3.31114834 0 0 Z " fill="#E89E64" transform="translate(47,112)"/>
<path d="M0 0 C1.98 0 3.96 0 6 0 C6.99 1.98 7.98 3.96 9 6 C8.01 7.485 8.01 7.485 7 9 C6.773125 8.05125 6.54625 7.1025 6.3125 6.125 C5.30916286 2.80676612 5.30916286 2.80676612 2.375 1.625 C1.59125 1.41875 0.8075 1.2125 0 1 C0 0.67 0 0.34 0 0 Z " fill="#F0AE53" transform="translate(82,51)"/>
<path d="M0 0 C0.66 0.33 1.32 0.66 2 1 C-4.07439825 7.86214442 -4.07439825 7.86214442 -7.9375 8.4375 C-8.9584375 8.2209375 -8.9584375 8.2209375 -10 8 C-9.443125 7.773125 -8.88625 7.54625 -8.3125 7.3125 C-5.36305245 5.63848923 -3.3247731 3.45043651 -1 1 C-0.67 0.67 -0.34 0.34 0 0 Z " fill="#EE4D27" transform="translate(74,21)"/>
<path d="M0 0 C0.66 0 1.32 0 2 0 C1.67 2.97 1.34 5.94 1 9 C0.34 9 -0.32 9 -1 9 C-0.67 6.03 -0.34 3.06 0 0 Z " fill="#FEEECB" transform="translate(54,79)"/>
<path d="M0 0 C-0.33 0.99 -0.66 1.98 -1 3 C-2.98 3.33 -4.96 3.66 -7 4 C-6.67 3.01 -6.34 2.02 -6 1 C-3.90006779 0.25486277 -2.22568901 0 0 0 Z " fill="#472E42" transform="translate(81,9)"/>
</svg>
