<?xml version="1.0" encoding="UTF-8"?>
<svg version="1.1" xmlns="http://www.w3.org/2000/svg" width="150" height="150">
<path d="M0 0 C0.79521057 0.0027594 1.59042114 0.0055188 2.409729 0.00836182 C14.82450969 0.13111542 23.7473912 3.1715656 34.375 9.5 C35.30449463 10.00990479 36.23398926 10.51980957 37.19165039 11.04516602 C40.49534293 13.24651946 41.80179741 16.44400764 43.4375 19.9375 C43.77894043 20.64817627 44.12038086 21.35885254 44.47216797 22.09106445 C51.98083358 38.03757963 51.98083358 38.03757963 50.76953125 42.9609375 C49.02569811 46.13598383 46.82897208 48.74435235 44.4375 51.4375 C40.52105776 55.95285168 36.72477123 60.52608312 33.0625 65.25 C28.38834767 71.25938358 23.58139067 77.14894382 18.72973633 83.015625 C14.54617741 88.07475905 10.38764572 93.15324257 6.25 98.25 C5.45166748 99.23299072 5.45166748 99.23299072 4.63720703 100.23583984 C1.86989884 103.64674943 -0.88592883 107.06633183 -3.625 110.5 C-6.76433548 109.13741467 -8.57761952 107.6931018 -10.7265625 105.04296875 C-11.29431396 104.34880859 -11.86206543 103.65464844 -12.44702148 102.93945312 C-13.04200439 102.19630859 -13.6369873 101.45316406 -14.25 100.6875 C-14.86883057 99.92501953 -15.48766113 99.16253906 -16.12524414 98.37695312 C-21.40921243 91.83952115 -26.53997502 85.19272381 -31.625 78.5 C-33.95138261 75.49456516 -36.286827 72.49626805 -38.625 69.5 C-42.37339719 71.25239533 -44.79466469 73.54293326 -47.625 76.5 C-49.22646833 78.10686048 -50.830817 79.71085362 -52.4375 81.3125 C-53.22769531 82.10269531 -54.01789062 82.89289063 -54.83203125 83.70703125 C-55.42371094 84.29871094 -56.01539063 84.89039062 -56.625 85.5 C-56.625 81.95933433 -56.11139543 81.56223043 -53.81640625 79.03125 C-53.23439453 78.37769531 -52.65238281 77.72414063 -52.05273438 77.05078125 C-51.43720703 76.37402344 -50.82167969 75.69726562 -50.1875 75 C-48.97635556 73.6599561 -47.76914222 72.31634589 -46.56640625 70.96875 C-46.02701416 70.37513672 -45.48762207 69.78152344 -44.93188477 69.16992188 C-43.41193965 67.42023011 -43.41193965 67.42023011 -42.625 64.5 C-43.68248112 62.63777721 -43.68248112 62.63777721 -45.34375 60.8046875 C-45.94364746 60.0923999 -46.54354492 59.3801123 -47.16162109 58.64624023 C-47.80953613 57.89673096 -48.45745117 57.14722168 -49.125 56.375 C-50.42012775 54.84317201 -51.71440695 53.31062616 -53.0078125 51.77734375 C-53.63333008 51.04112793 -54.25884766 50.30491211 -54.90332031 49.54638672 C-57.92584124 45.95382143 -60.78984624 42.24112394 -63.625 38.5 C-62.71967357 36.41171371 -61.80025492 34.32953333 -60.875 32.25 C-60.36453125 31.08984375 -59.8540625 29.9296875 -59.328125 28.734375 C-57.625 25.5 -57.625 25.5 -55.5859375 23.46875 C-53.42653578 21.55009188 -53.42653578 21.55009188 -52.3984375 18.546875 C-49.7744972 12.3608258 -46.80655866 8.75125584 -40.65625 5.8359375 C-27.33746892 0.62366683 -14.11897655 -0.21107241 0 0 Z " fill="#6ABAF7" transform="translate(80.625,23.5)"/>
<path d="M0 0 C0.79521057 0.0027594 1.59042114 0.0055188 2.409729 0.00836182 C14.82450969 0.13111542 23.7473912 3.1715656 34.375 9.5 C35.30449463 10.00990479 36.23398926 10.51980957 37.19165039 11.04516602 C40.49534293 13.24651946 41.80179741 16.44400764 43.4375 19.9375 C43.77894043 20.64817627 44.12038086 21.35885254 44.47216797 22.09106445 C51.98083358 38.03757963 51.98083358 38.03757963 50.76953125 42.9609375 C49.02569811 46.13598383 46.82897208 48.74435235 44.4375 51.4375 C40.52105776 55.95285168 36.72477123 60.52608312 33.0625 65.25 C28.38834767 71.25938358 23.58139067 77.14894382 18.72973633 83.015625 C14.54617741 88.07475905 10.38764572 93.15324257 6.25 98.25 C5.71777832 98.90532715 5.18555664 99.5606543 4.63720703 100.23583984 C1.86989884 103.64674943 -0.88592883 107.06633183 -3.625 110.5 C-6.76433548 109.13741467 -8.57761952 107.6931018 -10.7265625 105.04296875 C-11.57806885 104.00184937 -11.57806885 104.00184937 -12.44677734 102.93969727 C-13.04184082 102.19647217 -13.6369043 101.45324707 -14.25 100.6875 C-14.86955566 99.92429443 -15.48911133 99.16108887 -16.12744141 98.37475586 C-20.62932535 92.80590097 -25.02407482 87.15999105 -29.359375 81.4609375 C-32.70937444 77.08283478 -36.16017796 72.78747532 -39.625 68.5 C-38.04503387 65.17927472 -36.54610579 62.81970165 -33.625 60.5 C-31.7421875 60.48046875 -31.7421875 60.48046875 -29.625 61.5 C-28.11386686 63.7017682 -26.85925873 65.77701562 -25.625 68.125 C-25.295 68.72957031 -24.965 69.33414063 -24.625 69.95703125 C-23.29216082 72.39883427 -21.97260073 74.84756386 -20.66455078 77.30273438 C-18.34918186 81.52522077 -15.65340111 85.11937795 -12.5 88.75 C-10.06201029 91.59313669 -7.70757006 94.37614491 -5.625 97.5 C-4.965 97.5 -4.305 97.5 -3.625 97.5 C-0.02705069 92.96406041 1.53329444 88.48539507 3.07421875 82.9609375 C3.56552959 81.31204403 4.05841617 79.6636194 4.55273438 78.015625 C5.31455095 75.44132903 6.06514 72.86556875 6.78881836 70.28027344 C10.83490417 55.93840512 10.83490417 55.93840512 14.44189453 52.56958008 C16.7738738 51.49788906 18.85498009 50.96227512 21.375 50.5 C22.97389488 49.98309968 24.56775768 49.45037927 26.15625 48.90234375 C28.54266545 48.15362566 30.9325967 47.42021182 33.328125 46.70117188 C35.37328994 46.05433699 37.37923716 45.28614608 39.375 44.5 C41.16947706 39.11656881 38.3365215 33.64368023 36.375 28.5 C35.10592416 26.23803838 33.77778809 24.16415526 32.23046875 22.0859375 C31.94816406 21.56257813 31.66585937 21.03921875 31.375 20.5 C31.87 19.015 31.87 19.015 32.375 17.5 C33.365 17.005 33.365 17.005 34.375 16.5 C34.375 15.51 34.375 14.52 34.375 13.5 C22.78407303 6.58201641 13.25830702 4.08364626 -0.1875 4.0625 C-1.01251007 4.05084808 -1.83752014 4.03919617 -2.68753052 4.02719116 C-17.03510573 3.85469225 -34.15306777 3.96290167 -45.45703125 14.01953125 C-47.26764565 16.47916425 -48.45212964 18.69413322 -49.625 21.5 C-51.078125 24.3046875 -51.078125 24.3046875 -52.625 26.5 C-53.615 26.5 -54.605 26.5 -55.625 26.5 C-55.20734375 25.45779297 -55.20734375 25.45779297 -54.78125 24.39453125 C-53.99791253 22.43354117 -53.2699616 20.44967808 -52.59375 18.44921875 C-49.28082925 11.09206762 -45.22606529 7.63600833 -37.69482422 4.6809082 C-25.18040431 0.54481879 -13.06449851 -0.19530843 0 0 Z " fill="#1E90FA" transform="translate(80.625,23.5)"/>
<path d="M0 0 C0.495 1.485 0.495 1.485 1 3 C0.18595703 3.87011719 0.18595703 3.87011719 -0.64453125 4.7578125 C-5.58250546 10.1495465 -9.29152428 14.78130528 -11 22 C-6.46510373 22.04986353 -1.9303711 22.08593637 2.60473633 22.10986328 C4.14382715 22.11985006 5.68289935 22.13344419 7.22192383 22.15087891 C15.44191867 22.24158966 22.97995884 22.02414613 31 20 C33.23022461 20.44189453 33.23022461 20.44189453 35 21 C34.06551025 21.14775879 33.13102051 21.29551758 32.16821289 21.44775391 C25.0678639 23.06321623 25.0678639 23.06321623 19.78045654 27.7401123 C17.23117097 33.01584284 15.87468312 38.71853906 14.4375 44.375 C13.74205674 46.91311408 13.03032565 49.44567284 12.3061676 51.97573853 C11.86300854 53.5429287 11.43860302 55.11559591 11.03697205 56.69393921 C9.60188047 62.03157569 7.42626629 65.65531245 4 70 C-0.2824809 68.46346171 -2.4106405 65.22236804 -5 61.6875 C-5.85376181 60.54527019 -6.70792322 59.40333895 -7.5625 58.26171875 C-7.9745166 57.70387695 -8.3865332 57.14603516 -8.81103516 56.57128906 C-9.85767993 55.18808459 -10.96748087 53.8531547 -12.0859375 52.52734375 C-14.37608117 49.50341935 -16.00306591 46.28393228 -17.625 42.875 C-19.27317767 39.45787303 -20.88905091 36.16642363 -23 33 C-26.94798734 33.52757069 -28.43385791 35.2555449 -30.9375 38.25 C-31.63875 39.06984375 -32.34 39.8896875 -33.0625 40.734375 C-33.701875 41.48203125 -34.34125 42.2296875 -35 43 C-36.6454378 44.68762851 -38.31288577 46.3540349 -40 48 C-41.60552671 49.60280547 -43.2095822 51.20708544 -44.8125 52.8125 C-46.20833333 54.20833333 -47.60416667 55.60416667 -49 57 C-49 53.49988233 -48.5411266 53.11258889 -46.296875 50.6015625 C-45.72839844 49.95703125 -45.15992188 49.3125 -44.57421875 48.6484375 C-43.97222656 47.98070312 -43.37023437 47.31296875 -42.75 46.625 C-41.57731484 45.30540702 -40.40542233 43.98510915 -39.234375 42.6640625 C-38.67580811 42.03556396 -38.11724121 41.40706543 -37.54174805 40.75952148 C-31.49435163 34.25064322 -31.49435163 34.25064322 -28.93359375 26.05078125 C-29.35731182 21.51094482 -30.71121169 17.9805014 -33 14 C-29.25 12.875 -29.25 12.875 -27 14 C-22.06873943 14.66761682 -17.12032464 15.20092337 -12.67578125 12.68359375 C-10.63491712 10.89132211 -8.81830983 9.01688328 -7 7 C-5.67070339 5.68341177 -4.33755998 4.37069239 -3 3.0625 C-1.99739287 2.04422713 -0.99636187 1.02438455 0 0 Z " fill="#75D6FE" transform="translate(73,52)"/>
<path d="M0 0 C1.17949219 0.95712891 1.17949219 0.95712891 2.3828125 1.93359375 C2.0528125 3.25359375 1.7228125 4.57359375 1.3828125 5.93359375 C-0.21484375 6.67578125 -0.21484375 6.67578125 -2.6171875 6.93359375 C-4.17977498 6.07219399 -5.73706534 5.19587107 -7.23510742 4.2265625 C-16.62687782 -1.80191322 -25.35794513 -2.2042878 -36.29541016 -2.07519531 C-38.23065176 -2.06786948 -40.1659452 -2.16027035 -42.09765625 -2.27734375 C-50.62206351 -2.76050853 -57.74499154 -0.01178569 -65.6171875 2.93359375 C-66.71289062 3.21460938 -67.80859375 3.495625 -68.9375 3.78515625 C-71.84900211 4.67657571 -71.84900211 4.67657571 -72.78466797 7.50537109 C-73.19676514 8.70734131 -73.19676514 8.70734131 -73.6171875 9.93359375 C-69.78498668 10.75149644 -65.95124221 11.56192988 -62.1171875 12.37109375 C-61.03953125 12.60119141 -59.961875 12.83128906 -58.8515625 13.06835938 C-53.11394065 14.27535909 -47.44885568 15.3178715 -41.6171875 15.93359375 C-42.2771875 16.44921875 -42.9371875 16.96484375 -43.6171875 17.49609375 C-45.97706786 19.41349654 -48.27209722 21.36451727 -50.5546875 23.37109375 C-51.24304687 23.96921875 -51.93140625 24.56734375 -52.640625 25.18359375 C-53.85754155 26.26102184 -55.05535941 27.36107854 -56.21875 28.49609375 C-58.94024959 31.05750513 -60.41471865 31.91228124 -64.1796875 32.30859375 C-67.05393388 31.9950396 -69.80883542 31.61440638 -72.6171875 30.93359375 C-72.16666016 31.78630859 -72.16666016 31.78630859 -71.70703125 32.65625 C-69.15717352 37.83375773 -67.91049597 41.17350985 -69.6171875 46.93359375 C-70.8191236 49.39056352 -72.1500564 51.61458008 -73.6171875 53.93359375 C-77.29696338 50.34680859 -80.69113538 46.61971099 -83.9921875 42.68359375 C-84.46825439 42.11874268 -84.94432129 41.5538916 -85.43481445 40.97192383 C-89.28334021 36.38297164 -92.98483013 31.69601786 -96.6171875 26.93359375 C-94.6371875 22.64359375 -92.6571875 18.35359375 -90.6171875 13.93359375 C-88.9671875 13.93359375 -87.3171875 13.93359375 -85.6171875 13.93359375 C-83.94184958 11.79036866 -82.7071801 9.9193403 -81.4296875 7.55859375 C-76.63697837 -0.8895715 -72.49357304 -2.79089895 -63.38037109 -5.7109375 C-44.14286645 -11.02022332 -16.83507943 -11.86680549 0 0 Z " fill="#B3E3FE" transform="translate(113.6171875,35.06640625)"/>
<path d="M0 0 C1.64064129 -0.01526651 3.28126651 -0.03232284 4.921875 -0.05078125 C17.26659068 -0.01909331 25.74081641 2.0817487 36 9 C36 12 36 12 34.234375 14.078125 C29.45289691 16.91929314 24.72243711 17.20043935 19.25 17.75 C18.124729 17.86923828 16.99945801 17.98847656 15.84008789 18.11132812 C12.56195382 18.43949314 9.28345678 18.73077011 6 19 C5.19353027 19.06767578 4.38706055 19.13535156 3.55615234 19.20507812 C-9.12491738 20.12017701 -22.94141523 18.04158197 -35 14 C-35.33 13.34 -35.66 12.68 -36 12 C-33.94481841 8.25772904 -32.74288308 6.31863419 -28.7578125 4.609375 C-27.55898438 4.32578125 -26.36015625 4.0421875 -25.125 3.75 C-23.93132813 3.45609375 -22.73765625 3.1621875 -21.5078125 2.859375 C-20.35023437 2.57578125 -19.19265625 2.2921875 -18 2 C-16.96746094 1.63777344 -15.93492188 1.27554688 -14.87109375 0.90234375 C-9.93781122 -0.64811647 -5.12562045 -0.14237835 0 0 Z " fill="#C5E8FE" transform="translate(75,32)"/>
<path d="M0 0 C0.79521057 0.0027594 1.59042114 0.0055188 2.409729 0.00836182 C14.82450969 0.13111542 23.7473912 3.1715656 34.375 9.5 C35.30449463 10.00990479 36.23398926 10.51980957 37.19165039 11.04516602 C40.49534293 13.24651946 41.80179741 16.44400764 43.4375 19.9375 C43.77894043 20.64817627 44.12038086 21.35885254 44.47216797 22.09106445 C51.98083358 38.03757963 51.98083358 38.03757963 50.76953125 42.9609375 C49.02569811 46.13598383 46.82897208 48.74435235 44.4375 51.4375 C40.52105776 55.95285168 36.72477123 60.52608312 33.0625 65.25 C28.38834767 71.25938358 23.58139067 77.14894382 18.72973633 83.015625 C14.54617741 88.07475905 10.38764572 93.15324257 6.25 98.25 C5.71777832 98.90532715 5.18555664 99.5606543 4.63720703 100.23583984 C1.86989884 103.64674943 -0.88592883 107.06633183 -3.625 110.5 C-6.76433548 109.13741467 -8.57761952 107.6931018 -10.7265625 105.04296875 C-11.57806885 104.00184937 -11.57806885 104.00184937 -12.44677734 102.93969727 C-13.04184082 102.19647217 -13.6369043 101.45324707 -14.25 100.6875 C-14.86955566 99.92429443 -15.48911133 99.16108887 -16.12744141 98.37475586 C-20.63062436 92.8042941 -25.02970666 87.15911175 -29.359375 81.453125 C-32.23229821 77.7084182 -35.21634442 74.06064933 -38.2265625 70.42578125 C-39.625 68.5 -39.625 68.5 -39.625 66.5 C-36.2630453 67.06445521 -34.87551552 67.94167369 -32.77734375 70.60546875 C-32.00112671 71.57613281 -32.00112671 71.57613281 -31.20922852 72.56640625 C-30.66580811 73.26636719 -30.1223877 73.96632813 -29.5625 74.6875 C-28.99394287 75.40421875 -28.42538574 76.1209375 -27.83959961 76.859375 C-26.09243417 79.06601357 -24.35857188 81.28267524 -22.625 83.5 C-21.59736819 84.79897993 -20.56877516 86.09720021 -19.5390625 87.39453125 C-14.81157587 93.36312226 -10.15441676 99.37916654 -5.625 105.5 C-1.62364617 102.5542618 1.34273493 99.25098212 4.3125 95.3125 C8.52937782 89.83390211 12.84050067 84.44983963 17.25 79.125 C18.43888663 77.68626778 19.62768839 76.24746541 20.81640625 74.80859375 C21.40566895 74.09558105 21.99493164 73.38256836 22.60205078 72.64794922 C27.06843116 67.23687588 31.50704565 61.80524889 35.89404297 56.32958984 C37.31631724 54.5724973 38.76624714 52.84209752 40.22265625 51.11328125 C41.0661698 50.07638681 41.90868503 49.03867911 42.75 48 C43.47960937 47.1234375 44.20921875 46.246875 44.9609375 45.34375 C46.87788288 41.48867753 46.45460874 38.5186474 45.375 34.5 C44.39024049 31.68783108 43.20397199 29.00794445 41.9375 26.3125 C41.3132363 24.94426842 40.68952498 23.57578465 40.06640625 22.20703125 C39.76621582 21.56975098 39.46602539 20.9324707 39.15673828 20.27587891 C38.375 18.5 38.375 18.5 37.52734375 15.63671875 C35.85332948 12.53269906 33.67119089 12.57005057 30.375 11.5 C28.62213822 10.50196068 26.8789413 9.48680244 25.14453125 8.45703125 C17.01886457 4.34725406 8.99333535 4.29454637 0.0625 4.1875 C-0.77250031 4.17085297 -1.60750061 4.15420593 -2.46780396 4.13705444 C-16.91074168 3.89593262 -34.05575641 3.87632812 -45.45703125 14.01953125 C-47.26764565 16.47916425 -48.45212964 18.69413322 -49.625 21.5 C-51.078125 24.3046875 -51.078125 24.3046875 -52.625 26.5 C-53.615 26.5 -54.605 26.5 -55.625 26.5 C-55.20734375 25.45779297 -55.20734375 25.45779297 -54.78125 24.39453125 C-53.99791253 22.43354117 -53.2699616 20.44967808 -52.59375 18.44921875 C-49.28082925 11.09206762 -45.22606529 7.63600833 -37.69482422 4.6809082 C-25.18040431 0.54481879 -13.06449851 -0.19530843 0 0 Z " fill="#035AB3" transform="translate(80.625,23.5)"/>
<path d="M0 0 C1.17949219 0.95712891 1.17949219 0.95712891 2.3828125 1.93359375 C2.0528125 3.25359375 1.7228125 4.57359375 1.3828125 5.93359375 C-0.21484375 6.67578125 -0.21484375 6.67578125 -2.6171875 6.93359375 C-4.17977498 6.07219399 -5.73706534 5.19587107 -7.23510742 4.2265625 C-16.62687782 -1.80191322 -25.35794513 -2.2042878 -36.29541016 -2.07519531 C-38.23065176 -2.06786948 -40.1659452 -2.16027035 -42.09765625 -2.27734375 C-50.62206351 -2.76050853 -57.74499154 -0.01178569 -65.6171875 2.93359375 C-66.67679688 3.19527344 -67.73640625 3.45695312 -68.828125 3.7265625 C-72.58016711 5.35034543 -73.47832111 7.29697729 -75.3671875 10.87109375 C-75.93953125 11.93199219 -76.511875 12.99289063 -77.1015625 14.0859375 C-77.60171875 15.02566406 -78.101875 15.96539062 -78.6171875 16.93359375 C-79.2771875 17.92359375 -79.9371875 18.91359375 -80.6171875 19.93359375 C-83.50294569 19.53555814 -84.43908263 19.14350306 -86.3671875 16.87109375 C-86.7796875 16.23171875 -87.1921875 15.59234375 -87.6171875 14.93359375 C-87.19566406 14.55332031 -86.77414063 14.17304687 -86.33984375 13.78125 C-84.20839618 11.49513956 -82.69432324 9.0306325 -81.0546875 6.37109375 C-75.76915282 -2.18806242 -69.62822807 -3.98661519 -60.125 -6.609375 C-41.50253182 -10.84965426 -16.07665793 -11.33220508 0 0 Z " fill="#79B5FD" transform="translate(113.6171875,35.06640625)"/>
<path d="M0 0 C0.495 1.485 0.495 1.485 1 3 C0.46890625 3.556875 -0.0621875 4.11375 -0.609375 4.6875 C-8.55314348 13.24522655 -8.55314348 13.24522655 -11.375 24.25 C-10.90214808 28.97851919 -10.19482533 30.9280257 -6.64453125 34.11328125 C-5.70996094 34.83902344 -4.77539062 35.56476563 -3.8125 36.3125 C5.61566264 43.83021916 5.61566264 43.83021916 9 48 C9 48.66 9 49.32 9 50 C5.74716799 48.58852884 3.77045452 46.90672627 1.375 44.3125 C-4.04321617 38.73132996 -11.09094601 32.02237312 -19.1875 31.5625 C-23.85638186 31.62983964 -26.09573233 32.9483916 -29.390625 36.16015625 C-31.56777856 38.64908665 -33.47621494 41.29244095 -35.3984375 43.98046875 C-38.16579815 47.47004303 -41.55356884 50.20464002 -45 53 C-46.485 54.2065625 -46.485 54.2065625 -48 55.4375 C-48.99 56.2109375 -48.99 56.2109375 -50 57 C-48.71634731 54.23205332 -47.32688796 52.01702326 -45.3203125 49.72265625 C-44.80339844 49.12646484 -44.28648438 48.53027344 -43.75390625 47.91601562 C-43.21636719 47.30435547 -42.67882812 46.69269531 -42.125 46.0625 C-33.24670014 37.15972777 -33.24670014 37.15972777 -28.93359375 26.05078125 C-29.35731182 21.51094482 -30.71121169 17.9805014 -33 14 C-29.25 12.875 -29.25 12.875 -27 14 C-22.06873943 14.66761682 -17.12032464 15.20092337 -12.67578125 12.68359375 C-10.63491712 10.89132211 -8.81830983 9.01688328 -7 7 C-5.67070339 5.68341177 -4.33755998 4.37069239 -3 3.0625 C-1.99739287 2.04422713 -0.99636187 1.02438455 0 0 Z " fill="#F9FDFE" transform="translate(73,52)"/>
<path d="M0 0 C6.50986546 5.57988468 9.89214885 14.63707482 11 23 C7.87439138 27.68841293 3.2730298 28.52363412 -2.01953125 29.6328125 C-6.72822092 30.45726864 -11.21049609 31.11382733 -16 31 C-13.41874331 22.82602049 -10.22988119 14.93359166 -7 7 C-8.32 6.34 -9.64 5.68 -11 5 C-9.1128125 4.5978125 -9.1128125 4.5978125 -7.1875 4.1875 C-4.00551199 3.40467463 -1.99755689 2.74664072 0 0 Z " fill="#72C0FA" transform="translate(111,43)"/>
<path d="M0 0 C-0.78761719 0.969375 -1.57523438 1.93875 -2.38671875 2.9375 C-2.9065332 3.57727783 -3.42634766 4.21705566 -3.96191406 4.8762207 C-5.12660317 6.30967155 -6.29131731 7.74310205 -7.45605469 9.17651367 C-11.00801047 13.54789517 -14.55916868 17.91992218 -18.109375 22.29272461 C-19.72941354 24.28715598 -21.35096147 26.28035275 -22.97265625 28.2734375 C-24.90422461 30.64802613 -26.82870656 33.0280118 -28.74609375 35.4140625 C-29.55175781 36.41179687 -30.35742188 37.40953125 -31.1875 38.4375 C-31.88230469 39.30246094 -32.57710938 40.16742188 -33.29296875 41.05859375 C-35 43 -35 43 -37 44 C-36.30070031 41.41943562 -35.59812353 38.83982907 -34.89160156 36.26123047 C-34.30439719 34.11340022 -33.72286806 31.96400906 -33.14746094 29.81298828 C-32.26076243 26.55102756 -31.32199804 23.30741776 -30.375 20.0625 C-29.93607422 18.39864258 -29.93607422 18.39864258 -29.48828125 16.70117188 C-27.15361944 8.88903428 -27.15361944 8.88903428 -23.9987793 6.45776367 C-21.6886455 5.40639633 -19.44581435 4.67117578 -17 4 C-15.63413259 3.50050547 -14.27068106 2.99433723 -12.91015625 2.48046875 C-11.62916737 2.04485497 -10.34662126 1.61379153 -9.0625 1.1875 C-8.40443359 0.95869141 -7.74636719 0.72988281 -7.06835938 0.49414062 C-2.24227851 -1.12113926 -2.24227851 -1.12113926 0 0 Z " fill="#34ABFD" transform="translate(119,70)"/>
<path d="M0 0 C2.62901288 1.52206009 4.84365964 2.84365964 7 5 C6.74476562 6.02867188 6.48953125 7.05734375 6.2265625 8.1171875 C5.93639996 13.08997308 7.34122261 14.42389109 10.484375 18.05859375 C11.10828125 18.74050781 11.7321875 19.42242187 12.375 20.125 C13.59933408 21.49533207 14.8158033 22.87274082 16.0234375 24.2578125 C16.84207275 25.15717529 16.84207275 25.15717529 17.67724609 26.07470703 C19.28371716 28.41295562 19.74160511 30.18467788 20 33 C18.5625 35.8125 18.5625 35.8125 17 38 C13.32022412 34.41321484 9.92605212 30.68611724 6.625 26.75 C5.91089966 25.90272339 5.91089966 25.90272339 5.18237305 25.03833008 C1.3350154 20.45077074 -2.38572446 15.77380421 -6 11 C-5.18993474 9.35296694 -4.3768779 7.70740494 -3.5625 6.0625 C-3.11003906 5.14597656 -2.65757813 4.22945312 -2.19140625 3.28515625 C-1 1 -1 1 0 0 Z " fill="#3095F3" transform="translate(23,51)"/>
<path d="M0 0 C3.23448855 1.65980334 4.44590346 4.58635981 6.078125 7.69140625 C6.408125 8.29597656 6.738125 8.90054688 7.078125 9.5234375 C8.41096418 11.96524052 9.73052427 14.41397011 11.03857422 16.86914062 C13.35394314 21.09162702 16.04972389 24.6857842 19.203125 28.31640625 C21.64111471 31.15954294 23.99555494 33.94255116 26.078125 37.06640625 C28.32175073 37.29486115 28.32175073 37.29486115 30.203125 35.06640625 C30.821875 34.40640625 31.440625 33.74640625 32.078125 33.06640625 C31.65486917 34.86149126 31.21401765 36.65243455 30.765625 38.44140625 C30.52199219 39.43914062 30.27835938 40.436875 30.02734375 41.46484375 C29.078125 44.06640625 29.078125 44.06640625 26.078125 46.06640625 C19.05147556 37.48684525 12.10035812 28.8696945 5.37109375 20.0546875 C-0.45577249 12.28624423 -0.45577249 12.28624423 -6.921875 5.06640625 C-2.55070936 0.08813427 -2.55070936 0.08813427 0 0 Z " fill="#3196F3" transform="translate(48.921875,83.93359375)"/>
<path d="M0 0 C3.50654014 3.98646395 5.60725015 7.99484075 7.6875 12.8125 C7.99494141 13.48603516 8.30238281 14.15957031 8.61914062 14.85351562 C10.69632481 19.60331317 11.56608798 23.83355424 12 29 C9.35261084 30.4606285 8.10551666 31 5 31 C4.90203125 30.38253906 4.8040625 29.76507813 4.703125 29.12890625 C3.40341535 21.76761968 1.18178471 15.46076195 -2.8125 9.125 C-3.204375 8.42375 -3.59625 7.7225 -4 7 C-3.67 6.01 -3.34 5.02 -3 4 C-2.34 3.67 -1.68 3.34 -1 3 C-0.67 2.01 -0.34 1.02 0 0 Z " fill="#439AF7" transform="translate(116,37)"/>
<path d="M0 0 C13.38190364 10.80846063 13.38190364 10.80846063 15 18 C14.625 21.8125 14.625 21.8125 14 25 C9.13008062 20.43445059 5.09064321 15.26306605 1 10 C0.40832031 9.30519531 -0.18335937 8.61039063 -0.79296875 7.89453125 C-1.19128906 7.26933594 -1.58960937 6.64414062 -2 6 C-1.1875 2.75 -1.1875 2.75 0 0 Z " fill="#74C6F6" transform="translate(30,57)"/>
<path d="M0 0 C0.66 0.33 1.32 0.66 2 1 C1.38722388 3.96175123 0.74627478 5.38058783 -1 8 C-0.48054193 12.42298485 2.40205127 15.34941648 5.125 18.6875 C5.86508301 19.61526245 5.86508301 19.61526245 6.62011719 20.56176758 C8.83067211 23.33145014 11.06514508 26.07896374 13.3203125 28.8125 C13.95710938 29.59625 14.59390625 30.38 15.25 31.1875 C15.81203125 31.86167969 16.3740625 32.53585938 16.953125 33.23046875 C17.29859375 33.81441406 17.6440625 34.39835937 18 35 C17.67 35.99 17.34 36.98 17 38 C13.32022412 34.41321484 9.92605212 30.68611724 6.625 26.75 C5.91089966 25.90272339 5.91089966 25.90272339 5.18237305 25.03833008 C1.3350154 20.45077074 -2.38572446 15.77380421 -6 11 C-5.18993474 9.35296694 -4.3768779 7.70740494 -3.5625 6.0625 C-3.11003906 5.14597656 -2.65757813 4.22945312 -2.19140625 3.28515625 C-1 1 -1 1 0 0 Z " fill="#0259B3" transform="translate(23,51)"/>
<path d="M0 0 C1.78581543 3.48978098 3 5.99896236 3 10 C1.27832038 13.216961 -0.78250158 16.10761076 -3 19 C-6.78125 18.2578125 -6.78125 18.2578125 -8.75 15.9375 C-9.1625 15.298125 -9.575 14.65875 -10 14 C-9.58105469 13.62230469 -9.16210938 13.24460937 -8.73046875 12.85546875 C-6.56065307 10.52891695 -4.99493357 8.01074252 -3.3125 5.3125 C-2.37857422 3.82169922 -2.37857422 3.82169922 -1.42578125 2.30078125 C-0.95527344 1.54152344 -0.48476563 0.78226563 0 0 Z " fill="#3890ED" transform="translate(36,36)"/>
<path d="M0 0 C0.33 0 0.66 0 1 0 C2.17293889 6.3778552 3.29530838 12.50321562 3 19 C-1.08963819 16.71461395 -4.46362104 14.04293074 -8 11 C-7.34 10.67 -6.68 10.34 -6 10 C-5.71125 9.2575 -5.4225 8.515 -5.125 7.75 C-3.8563806 4.64893037 -2.21330344 2.49889098 0 0 Z " fill="#71C5F7" transform="translate(39,45)"/>
<path d="M0 0 C3.9853282 3.74379316 7.20895265 7.80285582 10.44921875 12.20703125 C10.96097656 12.79871094 11.47273438 13.39039062 12 14 C14.24362573 14.2284549 14.24362573 14.2284549 16.125 12 C16.74375 11.34 17.3625 10.68 18 10 C17.57674417 11.79508501 17.13589265 13.5860283 16.6875 15.375 C16.44386719 16.37273437 16.20023438 17.37046875 15.94921875 18.3984375 C15 21 15 21 12 23 C9.21799095 19.83426557 7.40850869 16.88852196 5.859375 12.97265625 C4.48473935 9.8172426 2.72112421 6.88782644 0.98828125 3.91796875 C0 2 0 2 0 0 Z " fill="#46ABFD" transform="translate(63,107)"/>
<path d="M0 0 C0.33 0.66 0.66 1.32 1 2 C5.53489627 2.04986353 10.0696289 2.08593637 14.60473633 2.10986328 C16.14382715 2.11985006 17.68289935 2.13344419 19.22192383 2.15087891 C27.44191867 2.24158966 34.97995884 2.02414613 43 0 C45.23022461 0.44189453 45.23022461 0.44189453 47 1 C37.2538157 5.20644563 28.37577802 5.49843784 18 5 C17.16871582 4.96181152 16.33743164 4.92362305 15.48095703 4.88427734 C10.31714212 4.63810117 5.15858363 4.33787214 0 4 C0 2.68 0 1.36 0 0 Z " fill="#B4DFFB" transform="translate(61,72)"/>
<path d="M0 0 C2.5625 1.5625 2.5625 1.5625 5 4 C4.6875 7.5 4.6875 7.5 4 11 C4.80579785 13.3715005 4.80579785 13.3715005 6 15 C2.08788267 13.84414715 -0.8745041 12.64465038 -4 10 C-3.29445932 6.33118845 -1.72264494 3.29549466 0 0 Z " fill="#46A2F8" transform="translate(25,52)"/>
<path d="M0 0 C0.33 0.66 0.66 1.32 1 2 C1.66 2.33 2.32 2.66 3 3 C-2.20309731 9.66044633 -7.39122743 15.71298195 -14 21 C-15.485 22.2065625 -15.485 22.2065625 -17 23.4375 C-17.99 24.2109375 -17.99 24.2109375 -19 25 C-17.71634731 22.23205332 -16.32688796 20.01702326 -14.3203125 17.72265625 C-13.80339844 17.12646484 -13.28648438 16.53027344 -12.75390625 15.91601562 C-11.94759766 14.99852539 -11.94759766 14.99852539 -11.125 14.0625 C-4.95155928 7.4533315 -4.95155928 7.4533315 0 0 Z " fill="#CAEAFE" transform="translate(42,84)"/>
<path d="M0 0 C4.51404855 2.06060016 7.66139582 5.13750706 11.25 8.5 C11.8996875 9.09425781 12.549375 9.68851563 13.21875 10.30078125 C14.13914062 11.15736328 14.13914062 11.15736328 15.078125 12.03125 C15.63918945 12.55267578 16.20025391 13.07410156 16.77832031 13.61132812 C18 15 18 15 18 17 C14.69060402 15.56910817 12.64552547 13.80572265 10.1875 11.1875 C6.70197968 7.59734868 3.15804636 4.7720309 -1 2 C-0.67 1.34 -0.34 0.68 0 0 Z " fill="#B9E5FE" transform="translate(64,85)"/>
<path d="M0 0 C3.95820859 0.56545837 6.6659053 1.80902348 10 4 C9.67 6.31 9.34 8.62 9 11 C5.36440339 7.56638098 2.63886654 4.2026393 0 0 Z " fill="#58B8F2" transform="translate(35,71)"/>
<path d="M0 0 C1.76171875 0.12890625 1.76171875 0.12890625 4 1 C5.95703125 3.65234375 5.95703125 3.65234375 7.8125 6.9375 C8.43769531 8.01902344 9.06289063 9.10054687 9.70703125 10.21484375 C10.13371094 11.13394531 10.56039062 12.05304688 11 13 C10.67 13.66 10.34 14.32 10 15 C6.37 10.71 2.74 6.42 -1 2 C-0.67 1.34 -0.34 0.68 0 0 Z " fill="#4FB5F2" transform="translate(47,84)"/>
<path d="M0 0 C0.33 0.99 0.66 1.98 1 3 C-1.64 5.97 -4.28 8.94 -7 12 C-8.32 11.67 -9.64 11.34 -11 11 C-7.37 7.37 -3.74 3.74 0 0 Z " fill="#BAE2FD" transform="translate(73,52)"/>
<path d="M0 0 C0.66 0.66 1.32 1.32 2 2 C-1.3 5.3 -4.6 8.6 -8 12 C-8 8.03869629 -6.65122875 7.17085599 -4 4.3125 C-3.2575 3.50425781 -2.515 2.69601563 -1.75 1.86328125 C-1.1725 1.24839844 -0.595 0.63351563 0 0 Z " fill="#FFFFFF" transform="translate(32,97)"/>
<path d="M0 0 C0.33 0.66 0.66 1.32 1 2 C-0.4375 4.625 -0.4375 4.625 -2 7 C-3.32 6.67 -4.64 6.34 -6 6 C-4 4 -2 2 0 0 Z " fill="#4BA5F8" transform="translate(35,48)"/>
<path d="M0 0 C0.66 0.33 1.32 0.66 2 1 C0.68775452 4.93673644 -0.91910327 7.22719294 -4 10 C-3.29445932 6.33118845 -1.72264494 3.29549466 0 0 Z " fill="#3E96ED" transform="translate(25,52)"/>
</svg>
