<?xml version="1.0" encoding="UTF-8"?>
<svg version="1.1" xmlns="http://www.w3.org/2000/svg" width="110" height="110">
<path d="M0 0 C0.81024628 -0.0049649 1.62049255 -0.00992981 2.45529175 -0.01504517 C5.13182428 -0.02963281 7.80829756 -0.03646271 10.48486328 -0.04199219 C12.34807334 -0.04774593 14.21128338 -0.05350363 16.07449341 -0.05926514 C19.98000361 -0.0697651 23.88549329 -0.07561451 27.79101562 -0.07910156 C32.79010166 -0.0845877 37.78891552 -0.10862252 42.78791618 -0.13707352 C46.63641143 -0.15571528 50.48484126 -0.16090629 54.33337784 -0.16243744 C56.17613337 -0.16546043 58.01888785 -0.17347702 59.86159897 -0.18662262 C62.44179654 -0.20371723 65.02133095 -0.20179477 67.6015625 -0.1953125 C68.3591687 -0.20452728 69.1167749 -0.21374207 69.89733887 -0.22323608 C74.65535765 -0.18587563 77.8923555 0.64075303 81.93017578 3.16113281 C86.50956004 8.23558564 87.08172351 11.42066096 87.09130859 18.07983398 C87.09875595 19.30698624 87.09875595 19.30698624 87.10635376 20.55892944 C87.1209952 23.2739953 87.12778195 25.98900266 87.13330078 28.70410156 C87.1390522 30.59019472 87.14480994 32.47628786 87.15057373 34.36238098 C87.16109045 38.32272616 87.16692819 42.28305101 87.17041016 46.2434082 C87.17588527 51.30971235 87.1998894 56.37574643 87.22838211 61.44196606 C87.24704229 65.3411181 87.25221597 69.24020566 87.25374603 73.13939857 C87.25676729 75.00644718 87.26477799 76.87349478 87.27793121 78.7404995 C87.29505651 81.35902535 87.29309534 83.97689928 87.28662109 86.59545898 C87.29583588 87.36196274 87.30505066 88.12846649 87.31454468 88.91819763 C87.2749822 94.04672492 86.32793573 97.60375823 83.93017578 102.16113281 C78.86517058 106.85552788 75.4996053 107.31288075 68.79614258 107.32226562 C67.53491074 107.32971298 67.53491074 107.32971298 66.24819946 107.33731079 C63.45858957 107.35194991 60.66903657 107.35873766 57.87939453 107.36425781 C55.94366962 107.37000825 54.00794472 107.375766 52.07221985 107.38153076 C48.0093255 107.39204602 43.94645097 107.39788511 39.88354492 107.40136719 C34.67804285 107.40685008 29.4728026 107.43087155 24.26738262 107.45933914 C20.26708716 107.47796645 16.26685471 107.48317119 12.26651955 107.48470306 C10.34757876 107.4877304 8.42863911 107.49576164 6.50974083 107.50888824 C3.82375587 107.52594908 1.13840979 107.52406833 -1.54760742 107.51757812 C-2.3400032 107.52679291 -3.13239899 107.53600769 -3.94880676 107.54550171 C-8.51780082 107.5109298 -11.4341407 106.97927507 -15.06982422 104.16113281 C-19.78094376 98.92655555 -20.22110976 94.93653241 -20.23095703 88.11303711 C-20.23592194 87.29318329 -20.24088684 86.47332947 -20.2460022 85.62863159 C-20.26061647 82.9141964 -20.2674248 80.19981965 -20.27294922 77.48535156 C-20.27870153 75.59829202 -20.28445926 73.71123249 -20.29022217 71.82417297 C-20.30073024 67.86560799 -20.30657409 63.9070633 -20.31005859 59.94848633 C-20.31554114 54.88099179 -20.33956487 49.81376623 -20.36803055 44.74635601 C-20.3866732 40.84724652 -20.39186341 36.94820158 -20.39339447 33.04905128 C-20.39641814 31.18117618 -20.40443703 29.31330213 -20.41757965 27.44547081 C-20.43467324 24.82924437 -20.43275182 22.21367205 -20.42626953 19.59741211 C-20.43548431 18.82888412 -20.4446991 18.06035614 -20.45419312 17.26853943 C-20.4171206 12.48155913 -19.60176325 9.22646065 -17.06982422 5.16113281 C-11.6735485 0.04158918 -7.18424062 0.01054411 0 0 Z " fill="#29414E" transform="translate(22.06982421875,1.8388671875)"/>
<path d="M0 0 C10.84857414 -0.0695563 21.6970951 -0.12283994 32.54584694 -0.15543652 C37.58354197 -0.17108242 42.62108427 -0.19230118 47.65869141 -0.22631836 C52.5216255 -0.25894998 57.38441282 -0.27686111 62.24744797 -0.28463173 C64.10137619 -0.2901684 65.95529652 -0.30098019 67.80916214 -0.31719017 C70.40892046 -0.33901501 73.00807474 -0.34196482 75.60791016 -0.34057617 C76.37180054 -0.351362 77.13569092 -0.36214783 77.92272949 -0.3732605 C82.70068303 -0.34570353 85.94676571 0.46463357 90 3 C94.57938426 8.07445283 95.15154773 11.25952815 95.16113281 17.91870117 C95.16858017 19.14585342 95.16858017 19.14585342 95.17617798 20.39779663 C95.19081942 23.11286249 95.19760616 25.82786985 95.203125 28.54296875 C95.20887642 30.42906191 95.21463415 32.31515505 95.22039795 34.20124817 C95.23091467 38.16159335 95.23675241 42.1219182 95.24023438 46.08227539 C95.24570949 51.14857954 95.26971362 56.21461362 95.29820633 61.28083324 C95.31686651 65.17998528 95.32204019 69.07907285 95.32357025 72.97826576 C95.32659151 74.84531436 95.33460221 76.71236197 95.34775543 78.57936668 C95.36488072 81.19789253 95.36291955 83.81576647 95.35644531 86.43432617 C95.3656601 87.20082993 95.37487488 87.96733368 95.3843689 88.75706482 C95.34480642 93.88559211 94.39775995 97.44262542 92 102 C86.9349948 106.69439507 83.56942952 107.15174794 76.8659668 107.16113281 C75.60473495 107.16858017 75.60473495 107.16858017 74.31802368 107.17617798 C71.52841379 107.1908171 68.73886079 107.19760485 65.94921875 107.203125 C64.01349383 107.20887544 62.07776894 107.21463318 60.14204407 107.22039795 C56.07914972 107.23091321 52.01627519 107.2367523 47.95336914 107.24023438 C42.74786707 107.24571727 37.54262682 107.26973874 32.33720684 107.29820633 C28.33691138 107.31683363 24.33667893 107.32203838 20.33634377 107.32357025 C18.41740298 107.32659759 16.49846332 107.33462883 14.57956505 107.34775543 C11.89358009 107.36481626 9.208234 107.36293552 6.5222168 107.35644531 C5.72982101 107.3656601 4.93742523 107.37487488 4.12101746 107.3843689 C-0.4479766 107.34979698 -3.36431648 106.81814225 -7 104 C-11.74558019 98.72713312 -12.14503057 94.72706927 -12.11352539 87.85668945 C-12.11367142 87.02719788 -12.11381744 86.1977063 -12.1139679 85.34307861 C-12.11327092 82.59978628 -12.10548853 79.85656173 -12.09765625 77.11328125 C-12.09579131 75.21184832 -12.09436776 73.31041491 -12.09336853 71.40898132 C-12.08954936 66.40305252 -12.07972416 61.3971527 -12.06866455 56.39123535 C-12.05843756 51.28361402 -12.05386815 46.175988 -12.04882812 41.06835938 C-12.03810138 31.04556018 -12.02103212 21.0227825 -12 11 C-11.67 11 -11.34 11 -11 11 C-10.67 36.41 -10.34 61.82 -10 88 C-7.03 87.01 -7.03 87.01 -4 86 C-2.6311966 85.68194678 -1.25472796 85.39407337 0.12890625 85.1484375 C0.85400391 85.01953125 1.57910156 84.890625 2.32617188 84.7578125 C3.06416016 84.63148437 3.80214844 84.50515625 4.5625 84.375 C5.6752832 84.17390625 5.6752832 84.17390625 6.81054688 83.96875 C10.58615857 83.30978304 14.15035606 82.83229274 18 83 C17.67 83.78375 17.34 84.5675 17 85.375 C15.88133489 87.84332497 15.88133489 87.84332497 16 90 C20.08450655 87.87323969 22.22590353 85.70581898 24.75 81.875 C28 77 28 77 29 76 C30.66617115 75.95936168 32.33388095 75.957279 34 76 C34.4125 76.928125 34.825 77.85625 35.25 78.8125 C37.02251934 82.04101737 37.93455709 83.12667377 41 85 C43.80264419 85.78263939 43.80264419 85.78263939 46.75 86.1875 C47.73484375 86.34605469 48.7196875 86.50460938 49.734375 86.66796875 C50.48203125 86.77753906 51.2296875 86.88710937 52 87 C52.66 88.98 53.32 90.96 54 93 C55.65 93.33 57.3 93.66 59 94 C58.34 94.66 57.68 95.32 57 96 C58.258125 96.020625 59.51625 96.04125 60.8125 96.0625 C61.87404297 96.07990234 61.87404297 96.07990234 62.95703125 96.09765625 C65.20305461 96.08263217 65.20305461 96.08263217 68 95 C68 94.34 68 93.68 68 93 C67.36191406 92.82984375 66.72382812 92.6596875 66.06640625 92.484375 C65.24011719 92.24203125 64.41382812 91.9996875 63.5625 91.75 C62.73878906 91.51796875 61.91507812 91.2859375 61.06640625 91.046875 C59 90 59 90 58.21484375 87.890625 C58.14394531 87.26671875 58.07304688 86.6428125 58 86 C63.36190101 83.38592128 68.03435204 81.50771472 74 81 C70.79663178 78.16625119 68.21912747 77.4794463 64 77 C65.34385419 74.08724428 66.90211114 71.7829338 68.9375 69.3125 C71.58135323 65.84244264 72.89215886 62.82347146 74.09375 58.66796875 C75.26349369 55.22428366 76.84894567 52.01398272 78.4375 48.75 C81.69818831 41.99400452 84.03105251 35.2520861 86 28 C86.99 28 87.98 28 89 28 C88.54267048 23.88403429 88.23497598 21.64679853 85 19 C82.96922316 18.01371583 82.96922316 18.01371583 80.8125 17.3125 C79.554375 16.879375 78.29625 16.44625 77 16 C77 11.05 77 6.1 77 1 C51.59 1 26.18 1 0 1 C0 0.67 0 0.34 0 0 Z " fill="#242F38" transform="translate(14,2)"/>
<path d="M0 0 C6.73474921 -0.37261932 11.92688703 -0.08982941 18 3 C20.0625 5.375 20.0625 5.375 21 8 C20.6875 10.8125 20.6875 10.8125 20 13 C19.01 12.67 18.02 12.34 17 12 C16.93683594 12.53625 16.87367187 13.0725 16.80859375 13.625 C15.3310263 23.08143166 11.19272562 31.82598754 6.8203125 40.28125 C5.83346852 42.16810278 5.83346852 42.16810278 5.375 45.125 C4.13221595 49.85990453 0.88199604 53.19720902 -2.22265625 56.86328125 C-4.03116802 58.87219989 -4.03116802 58.87219989 -5 61 C-4.113125 60.938125 -3.22625 60.87625 -2.3125 60.8125 C1.34485017 61.01951982 3.04777151 61.916074 6 64 C5.67 64.66 5.34 65.32 5 66 C3.14453125 66.5625 3.14453125 66.5625 0.8125 67 C-2.90716396 67.74868636 -6.42200638 68.71559203 -10 70 C-9.81266183 71.96161898 -9.81266183 71.96161898 -9 74 C-7.15272433 75.13070444 -7.15272433 75.13070444 -4.9375 75.75 C-3.83728516 76.11351563 -3.83728516 76.11351563 -2.71484375 76.484375 C-2.14894531 76.65453125 -1.58304688 76.8246875 -1 77 C-1 77.66 -1 78.32 -1 79 C-4.08888522 81.05925681 -4.70935927 81.2390374 -8.1875 81.125 C-9.445625 81.08375 -10.70375 81.0425 -12 81 C-12.33 80.01 -12.66 79.02 -13 78 C-13.495 77.505 -13.99 77.01 -14.5 76.5 C-16 75 -16 75 -17 72 C-17.72445312 71.91363281 -18.44890625 71.82726562 -19.1953125 71.73828125 C-25.60921618 70.80612725 -29.64344958 69.92978074 -34 65 C-34.875 62.1875 -34.875 62.1875 -35 60 C-38.60437202 60.52746908 -40.56391709 61.47092218 -42.88671875 64.2890625 C-44.11159901 66.0711734 -45.31180452 67.87054394 -46.484375 69.6875 C-48 72 -48 72 -50 74 C-50.99 74 -51.98 74 -53 74 C-53.66796875 72.20703125 -53.66796875 72.20703125 -54 70 C-52.92578125 68.32421875 -52.92578125 68.32421875 -51.3125 66.6875 C-49.09295427 64.29801225 -47.31833544 62.04986126 -45.75 59.1875 C-44 56 -44 56 -42 54 C-40.01171875 53.76171875 -40.01171875 53.76171875 -37.6875 53.6875 C-33.82142205 53.3632483 -33.09863468 53.08253106 -29.9375 50.4375 C-29.298125 49.633125 -28.65875 48.82875 -28 48 C-25.69 50.64 -23.38 53.28 -21 56 C-17.19379328 54.09689664 -14.84963632 52.22992819 -11.75 49.375 C-10.85796875 48.55773437 -9.9659375 47.74046875 -9.046875 46.8984375 C-8.37140625 46.27195313 -7.6959375 45.64546875 -7 45 C-7.33773437 44.05898438 -7.67546875 43.11796875 -8.0234375 42.1484375 C-8.98091687 39.061524 -9.12726274 37.93088312 -8 35 C-8.99 35 -9.98 35 -11 35 C-11.495 35.99 -11.495 35.99 -12 37 C-13.32162881 35.75965588 -14.63200453 34.50731374 -15.9375 33.25 C-16.66839844 32.55390625 -17.39929688 31.8578125 -18.15234375 31.140625 C-20.00517646 28.99400275 -20.60771565 27.76467068 -21 25 C-13.76450512 25.68259386 -13.76450512 25.68259386 -11 29 C-10.01 29.33 -9.02 29.66 -8 30 C-7.41615623 28.06882446 -6.85852946 26.12970605 -6.3125 24.1875 C-5.99925781 23.10855469 -5.68601563 22.02960937 -5.36328125 20.91796875 C-5.24339844 19.95503906 -5.12351563 18.99210937 -5 18 C-6.33110897 16.20975399 -6.33110897 16.20975399 -8 15 C-8 14.34 -8 13.68 -8 13 C-9.98 12.67 -11.96 12.34 -14 12 C-14.495 10.515 -14.495 10.515 -15 9 C-11.04 9.33 -7.08 9.66 -3 10 C-2.67 9.01 -2.34 8.02 -2 7 C-1.67 6.01 -1.34 5.02 -1 4 C-0.65772583 2.66893378 -0.32248257 1.33599921 0 0 Z " fill="#FDDF73" transform="translate(83,18)"/>
<path d="M0 0 C0.33 0 0.66 0 1 0 C1.33 25.41 1.66 50.82 2 77 C4.97 76.01 4.97 76.01 8 75 C9.3688034 74.68194678 10.74527204 74.39407337 12.12890625 74.1484375 C12.85400391 74.01953125 13.57910156 73.890625 14.32617188 73.7578125 C15.06416016 73.63148437 15.80214844 73.50515625 16.5625 73.375 C17.6752832 73.17390625 17.6752832 73.17390625 18.81054688 72.96875 C22.58615857 72.30978304 26.15035606 71.83229274 30 72 C29.67 72.78375 29.34 73.5675 29 74.375 C27.88133489 76.84332497 27.88133489 76.84332497 28 79 C32.08450655 76.87323969 34.22590353 74.70581898 36.75 70.875 C40 66 40 66 41 65 C42.66617115 64.95936168 44.33388095 64.957279 46 65 C46.4125 65.928125 46.825 66.85625 47.25 67.8125 C48.95985121 70.92687186 50.1611847 72.04219635 53 74 C53 74.66 53 75.32 53 76 C52.08504761 76.17390259 52.08504761 76.17390259 51.15161133 76.35131836 C48.371861 76.87980106 45.59217993 77.40864714 42.8125 77.9375 C41.37293945 78.21110352 41.37293945 78.21110352 39.90429688 78.49023438 C38.97294922 78.66748047 38.04160156 78.84472656 37.08203125 79.02734375 C36.22843018 79.18968506 35.3748291 79.35202637 34.49536133 79.51928711 C31.99445397 80.0010684 29.4968208 80.49750748 27 81 C27.03093173 83.41585574 27.03093173 83.41585574 28 86 C34.39769526 90.07126062 40.81800077 90.17193436 48.15625 90.31640625 C49.50257507 90.3475779 49.50257507 90.3475779 50.87609863 90.37937927 C52.78242425 90.42258215 54.68879972 90.46363152 56.59521484 90.50268555 C59.43470943 90.56115556 62.27397014 90.62663085 65.11328125 90.69335938 C77.74370716 90.97752746 90.36669072 91.05109775 103 91 C98.20807209 95.95165884 98.20807209 95.95165884 93.49028015 96.14044189 C91.94887441 96.15253947 90.4074185 96.15897477 88.8659668 96.16113281 C87.60473495 96.16858017 87.60473495 96.16858017 86.31802368 96.17617798 C83.52841379 96.1908171 80.73886079 96.19760485 77.94921875 96.203125 C76.01349383 96.20887544 74.07776894 96.21463318 72.14204407 96.22039795 C68.07914972 96.23091321 64.01627519 96.2367523 59.95336914 96.24023438 C54.74786707 96.24571727 49.54262682 96.26973874 44.33720684 96.29820633 C40.33691138 96.31683363 36.33667893 96.32203838 32.33634377 96.32357025 C30.41740298 96.32659759 28.49846332 96.33462883 26.57956505 96.34775543 C23.89358009 96.36481626 21.208234 96.36293552 18.5222168 96.35644531 C17.72982101 96.3656601 16.93742523 96.37487488 16.12101746 96.3843689 C11.5520234 96.34979698 8.63568352 95.81814225 5 93 C0.25441981 87.72713312 -0.14503057 83.72706927 -0.11352539 76.85668945 C-0.11367142 76.02719788 -0.11381744 75.1977063 -0.1139679 74.34307861 C-0.11327092 71.59978628 -0.10548853 68.85656173 -0.09765625 66.11328125 C-0.09579131 64.21184832 -0.09436776 62.31041491 -0.09336853 60.40898132 C-0.08954936 55.40305252 -0.07972416 50.3971527 -0.06866455 45.39123535 C-0.05843756 40.28361402 -0.05386815 35.175988 -0.04882812 30.06835938 C-0.03810138 20.04556018 -0.02103212 10.0227825 0 0 Z " fill="#2E3A44" transform="translate(2,13)"/>
<path d="M0 0 C2.66666667 2.66666667 5.33333333 5.33333333 8 8 C11.36591866 6.55746343 13.51047079 4.66735273 16 2 C16.66 2.33 17.32 2.66 18 3 C17.34 4.32 16.68 5.64 16 7 C16.66 7.99 17.32 8.98 18 10 C20.58380177 10.25030977 20.58380177 10.25030977 23 10 C23 11.32 23 12.64 23 14 C23.99 14 24.98 14 26 14 C26 15.32 26 16.64 26 18 C24.68 18.33 23.36 18.66 22 19 C22 19.66 22 20.32 22 21 C21.01 21.33 20.02 21.66 19 22 C19.18733817 23.96161898 19.18733817 23.96161898 20 26 C21.84727567 27.13070444 21.84727567 27.13070444 24.0625 27.75 C24.79597656 27.99234375 25.52945313 28.2346875 26.28515625 28.484375 C26.85105469 28.65453125 27.41695312 28.8246875 28 29 C28 29.66 28 30.32 28 31 C24.91111478 33.05925681 24.29064073 33.2390374 20.8125 33.125 C19.554375 33.08375 18.29625 33.0425 17 33 C16.67 32.01 16.34 31.02 16 30 C15.505 29.505 15.01 29.01 14.5 28.5 C13 27 13 27 12 24 C11.27554688 23.91363281 10.55109375 23.82726562 9.8046875 23.73828125 C3.39078382 22.80612725 -0.64344958 21.92978074 -5 17 C-5.875 14.1875 -5.875 14.1875 -6 12 C-9.60437202 12.52746908 -11.56391709 13.47092218 -13.88671875 16.2890625 C-15.11159901 18.0711734 -16.31180452 19.87054394 -17.484375 21.6875 C-19 24 -19 24 -21 26 C-21.99 26 -22.98 26 -24 26 C-24.66796875 24.20703125 -24.66796875 24.20703125 -25 22 C-23.92578125 20.32421875 -23.92578125 20.32421875 -22.3125 18.6875 C-20.09295427 16.29801225 -18.31833544 14.04986126 -16.75 11.1875 C-15 8 -15 8 -13 6 C-10.9765625 5.76171875 -10.9765625 5.76171875 -8.625 5.6875 C-4.85473428 5.37179337 -4.25918763 5.25918763 -1.4375 2.4375 C-0.963125 1.633125 -0.48875 0.82875 0 0 Z " fill="#F7D972" transform="translate(54,66)"/>
<path d="M0 0 C2.79587337 0.21996519 3.85347172 0.85378085 5.8515625 2.84765625 C6.43679687 3.57855469 7.02203125 4.30945312 7.625 5.0625 C8.70892398 6.40912172 9.82628102 7.73088022 11 9 C11.66 9 12.32 9 13 9 C13.99 9 14.98 9 16 9 C15.95875 9.9075 15.9175 10.815 15.875 11.75 C15.78622655 15.2599657 15.78622655 15.2599657 18 19 C13.71 22.96 9.42 26.92 5 31 C0.83254209 28.91627104 -1.55374921 26.47729003 -4.5625 23.0625 C-8.6720299 18.42813943 -8.6720299 18.42813943 -13 14 C-11.65284929 10.9055548 -10.2482789 9.10778741 -7.625 7 C-5.47729162 5.25248572 -3.67277567 3.6353786 -1.8125 1.5625 C-1.214375 1.046875 -0.61625 0.53125 0 0 Z " fill="#23B1FA" transform="translate(59,44)"/>
<path d="M0 0 C3.3 0 6.6 0 10 0 C8.02 0.99 8.02 0.99 6 2 C7.32 2.66 8.64 3.32 10 4 C10 4.66 10 5.32 10 6 C9.01 6.495 9.01 6.495 8 7 C8.33 7.33 8.66 7.66 9 8 C9.04063832 9.66617115 9.042721 11.33388095 9 13 C7.02 13 5.04 13 3 13 C3.020625 13.804375 3.04125 14.60875 3.0625 15.4375 C3 18 3 18 2 19 C-1.72480595 19.41386733 -3.38125927 19.48847952 -6.375 17.125 C-8 15 -8 15 -8 13 C-10.97 12.505 -10.97 12.505 -14 12 C-14.33 11.01 -14.66 10.02 -15 9 C-11.04 9.33 -7.08 9.66 -3 10 C-2.67 9.01 -2.34 8.02 -2 7 C-1.67 6.01 -1.34 5.02 -1 4 C-0.67 2.68 -0.34 1.36 0 0 Z " fill="#F2CA74" transform="translate(83,18)"/>
<path d="M0 0 C1.11375 1.0209375 1.11375 1.0209375 2.25 2.0625 C4.75949064 4.28353676 4.75949064 4.28353676 7.3125 3.75 C7.869375 3.5025 8.42625 3.255 9 3 C8.95875 3.9075 8.9175 4.815 8.875 5.75 C8.78622655 9.2599657 8.78622655 9.2599657 11 13 C6.71 16.96 2.42 20.92 -2 25 C-3.32 24.34 -4.64 23.68 -6 23 C-6 21.68 -6 20.36 -6 19 C-4.34634594 17.97862543 -2.67623498 16.98387706 -1 16 C1.13303511 13.77205232 3.07786619 11.41092385 5 9 C3.94645929 6.77382267 3.12920379 5.12920379 1.375 3.375 C0.92125 2.92125 0.4675 2.4675 0 2 C0 1.34 0 0.68 0 0 Z " fill="#0C90DD" transform="translate(66,50)"/>
<path d="M0 0 C1.21816406 0.03480469 1.21816406 0.03480469 2.4609375 0.0703125 C3.68683594 0.09738281 3.68683594 0.09738281 4.9375 0.125 C5.87722656 0.15980469 5.87722656 0.15980469 6.8359375 0.1953125 C6.5059375 2.8353125 6.1759375 5.4753125 5.8359375 8.1953125 C5.5059375 7.5353125 5.1759375 6.8753125 4.8359375 6.1953125 C1.23156548 6.72278158 -0.72797959 7.66623468 -3.05078125 10.484375 C-4.27566151 12.2664859 -5.47586702 14.06585644 -6.6484375 15.8828125 C-8.1640625 18.1953125 -8.1640625 18.1953125 -10.1640625 20.1953125 C-11.1540625 20.1953125 -12.1440625 20.1953125 -13.1640625 20.1953125 C-13.83203125 18.40234375 -13.83203125 18.40234375 -14.1640625 16.1953125 C-13.08984375 14.51953125 -13.08984375 14.51953125 -11.4765625 12.8828125 C-9.25701677 10.49332475 -7.48239794 8.24517376 -5.9140625 5.3828125 C-3.11304589 0.28096082 -3.11304589 0.28096082 0 0 Z " fill="#E66629" transform="translate(43.1640625,71.8046875)"/>
<path d="M0 0 C7.23549488 0.68259386 7.23549488 0.68259386 10 4 C10.99 4.33 11.98 4.66 13 5 C13.33 4.34 13.66 3.68 14 3 C16.07984273 8.65089345 17.79494011 13.95073322 18 20 C16.5625 22.5 16.5625 22.5 15 24 C14.690625 22.906875 14.38125 21.81375 14.0625 20.6875 C13.41662103 18.44592006 12.7376883 16.2130649 12 14 C12.4375 11.8125 12.4375 11.8125 13 10 C12.01 10 11.02 10 10 10 C9.67 10.66 9.34 11.32 9 12 C7.67837119 10.75965588 6.36799547 9.50731374 5.0625 8.25 C4.33160156 7.55390625 3.60070312 6.8578125 2.84765625 6.140625 C0.99482354 3.99400275 0.39228435 2.76467068 0 0 Z " fill="#EEC66C" transform="translate(62,43)"/>
<path d="M0 0 C1.65 0.33 3.3 0.66 5 1 C5 1.66 5 2.32 5 3 C5.66 3.33 6.32 3.66 7 4 C7.12246094 4.64453125 7.24492188 5.2890625 7.37109375 5.953125 C7.79344421 8.16239535 7.79344421 8.16239535 9.84765625 9.046875 C10.57855469 9.27890625 11.30945313 9.5109375 12.0625 9.75 C12.79597656 9.99234375 13.52945313 10.2346875 14.28515625 10.484375 C14.85105469 10.65453125 15.41695312 10.8246875 16 11 C16 11.66 16 12.32 16 13 C12.91111478 15.05925681 12.29064073 15.2390374 8.8125 15.125 C6.9253125 15.063125 6.9253125 15.063125 5 15 C4.67 14.01 4.34 13.02 4 12 C3.505 11.505 3.01 11.01 2.5 10.5 C1 9 1 9 0 6 C-3.63 5.34 -7.26 4.68 -11 4 C-7.41220825 3.10305206 -4.65381163 2.91695883 -1 3 C-0.67 2.01 -0.34 1.02 0 0 Z " fill="#F18444" transform="translate(66,84)"/>
<path d="M0 0 C7.75 0.875 7.75 0.875 10 2 C10 2.66 10 3.32 10 4 C10.763125 3.814375 11.52625 3.62875 12.3125 3.4375 C15 3 15 3 18 4 C18.042721 5.66611905 18.04063832 7.33382885 18 9 C17 10 17 10 14.1875 10.3125 C11 10 11 10 8.625 8.125 C7 6 7 6 7 4 C4.03 3.505 4.03 3.505 1 3 C0.67 2.01 0.34 1.02 0 0 Z " fill="#CE7C27" transform="translate(68,27)"/>
<path d="M0 0 C0.66 0.33 1.32 0.66 2 1 C-0.475 4.465 -0.475 4.465 -3 8 C-2.113125 7.938125 -1.22625 7.87625 -0.3125 7.8125 C3.34485017 8.01951982 5.04777151 8.916074 8 11 C7.67 11.66 7.34 12.32 7 13 C4.27734375 13.6328125 4.27734375 13.6328125 0.9375 14.125 C-0.16722656 14.29257813 -1.27195312 14.46015625 -2.41015625 14.6328125 C-3.69212891 14.81457031 -3.69212891 14.81457031 -5 15 C-3.68 14.34 -2.36 13.68 -1 13 C-1 11.68 -1 10.36 -1 9 C-1.99 9 -2.98 9 -4 9 C-4 7.68 -4 6.36 -4 5 C-5.65 5.33 -7.3 5.66 -9 6 C-9.66 4.68 -10.32 3.36 -11 2 C-9.39125 2.3403125 -9.39125 2.3403125 -7.75 2.6875 C-4.07021424 3.35775825 -4.07021424 3.35775825 -1.5625 1.5625 C-1.046875 1.046875 -0.53125 0.53125 0 0 Z " fill="#EA9F4F" transform="translate(81,71)"/>
<path d="M0 0 C0.33 0 0.66 0 1 0 C1.5 2.5625 1.5 2.5625 1 6 C-2.37267478 9.79720727 -7.33186431 14.73318643 -12.5 15.25 C-15 15 -15 15 -18 13 C-17.34 11.68 -16.68 10.36 -16 9 C-15.01 9 -14.02 9 -13 9 C-13 9.66 -13 10.32 -13 11 C-12.31292969 10.65066406 -11.62585938 10.30132812 -10.91796875 9.94140625 C-10.01691406 9.48636719 -9.11585937 9.03132813 -8.1875 8.5625 C-7.29417969 8.11003906 -6.40085937 7.65757813 -5.48046875 7.19140625 C-3 6 -3 6 0 5 C0 3.35 0 1.7 0 0 Z " fill="#FECC5F" transform="translate(87,60)"/>
<path d="M0 0 C1.21236328 0.04060547 1.21236328 0.04060547 2.44921875 0.08203125 C3.06410156 0.11683594 3.67898437 0.15164062 4.3125 0.1875 C3.9825 2.8275 3.6525 5.4675 3.3125 8.1875 C2.9825 7.1975 2.6525 6.2075 2.3125 5.1875 C0.0025 5.1875 -2.3075 5.1875 -4.6875 5.1875 C-4.97625 5.991875 -5.265 6.79625 -5.5625 7.625 C-6.6875 10.1875 -6.6875 10.1875 -8.6875 11.1875 C-8.07638889 3.73194444 -8.07638889 3.73194444 -6.4375 1.4375 C-4.15693419 -0.19147558 -2.77297177 -0.12056399 0 0 Z " fill="#F58647" transform="translate(45.6875,71.8125)"/>
<path d="M0 0 C1.11375 1.0209375 1.11375 1.0209375 2.25 2.0625 C4.75949064 4.28353676 4.75949064 4.28353676 7.3125 3.75 C7.869375 3.5025 8.42625 3.255 9 3 C8.6166563 8.65431955 8.22219898 11.89508433 4 16 C1.5 17.625 1.5 17.625 -1 19 C-2.34631825 19.98244845 -3.68441297 20.97676564 -5 22 C-3.59799333 17.5390697 -1.40216594 15.15322697 2 12 C2.598125 11.401875 3.19625 10.80375 3.8125 10.1875 C4.204375 9.795625 4.59625 9.40375 5 9 C3.99554337 6.75928906 3.12245015 5.12245015 1.375 3.375 C0.92125 2.92125 0.4675 2.4675 0 2 C0 1.34 0 0.68 0 0 Z " fill="#0194E8" transform="translate(66,50)"/>
<path d="M0 0 C2.31 0.66 4.62 1.32 7 2 C7 2.66 7 3.32 7 4 C6.01 4.495 6.01 4.495 5 5 C5.33 5.33 5.66 5.66 6 6 C6.04063832 7.66617115 6.042721 9.33388095 6 11 C0.25 10.25 0.25 10.25 -2 8 C-0.25 4.125 -0.25 4.125 2 3 C1.34 2.67 0.68 2.34 0 2 C0 1.34 0 0.68 0 0 Z " fill="#989183" transform="translate(86,20)"/>
<path d="M0 0 C1.3921875 0.2784375 1.3921875 0.2784375 2.8125 0.5625 C6.01343771 1.24123881 6.01343771 1.24123881 9 0 C11.6875 0.9375 11.6875 0.9375 14 2 C14 2.66 14 3.32 14 4 C10.91111478 6.05925681 10.29064073 6.2390374 6.8125 6.125 C4.9253125 6.063125 4.9253125 6.063125 3 6 C2.67 5.01 2.34 4.02 2 3 C1.34 2.67 0.68 2.34 0 2 C0 1.34 0 0.68 0 0 Z " fill="#E25F23" transform="translate(68,93)"/>
<path d="M0 0 C5 2 5 2 6.375 3.8125 C7.1508614 6.5280149 6.74778098 8.30798849 6 11 C5.01 10.67 4.02 10.34 3 10 C2.67 10.99 2.34 11.98 2 13 C1.34 8.71 0.68 4.42 0 0 Z " fill="#F7B857" transform="translate(97,20)"/>
<path d="M0 0 C0.33 0.66 0.66 1.32 1 2 C1.99 2 2.98 2 4 2 C4 3.32 4 4.64 4 6 C2.68 6.33 1.36 6.66 0 7 C0 7.66 0 8.32 0 9 C-1.65 9 -3.3 9 -5 9 C-4.34 8.01 -3.68 7.02 -3 6 C-2.835 5.13375 -2.67 4.2675 -2.5 3.375 C-2.335 2.59125 -2.17 1.8075 -2 1 C-1.34 0.67 -0.68 0.34 0 0 Z " fill="#F8C25B" transform="translate(76,78)"/>
<path d="M0 0 C7.75 0.875 7.75 0.875 10 2 C10 2.99 10 3.98 10 5 C10.99 5.33 11.98 5.66 13 6 C11.02 6.99 11.02 6.99 9 8 C8.79375 7.360625 8.5875 6.72125 8.375 6.0625 C7.10461791 3.65074923 7.10461791 3.65074923 3.875 3.25 C2.92625 3.1675 1.9775 3.085 1 3 C0.67 2.01 0.34 1.02 0 0 Z " fill="#BD6D26" transform="translate(68,27)"/>
<path d="M0 0 C2.94771035 5.68486996 4.69404405 10.57492515 5 17 C3.51171875 19.24609375 3.51171875 19.24609375 2 21 C1.96132812 19.57107422 1.96132812 19.57107422 1.921875 18.11328125 C1.86515625 16.85902344 1.8084375 15.60476562 1.75 14.3125 C1.70359375 13.07113281 1.6571875 11.82976563 1.609375 10.55078125 C0.92862155 6.58408325 -0.25338754 4.87295664 -3 2 C-2.01 2 -1.02 2 0 2 C0 1.34 0 0.68 0 0 Z " fill="#F5934E" transform="translate(75,46)"/>
<path d="M0 0 C6.52307692 0.49230769 6.52307692 0.49230769 8.9375 3.0625 C9.288125 3.701875 9.63875 4.34125 10 5 C7.69 5.33 5.38 5.66 3 6 C0 2.25 0 2.25 0 0 Z " fill="#DFA15B" transform="translate(62,43)"/>
<path d="M0 0 C1.2065625 0.0309375 1.2065625 0.0309375 2.4375 0.0625 C2.7675 1.3825 3.0975 2.7025 3.4375 4.0625 C-1.0175 4.5575 -1.0175 4.5575 -5.5625 5.0625 C-3.06867284 0.07484568 -3.06867284 0.07484568 0 0 Z " fill="#364D57" transform="translate(45.5625,77.9375)"/>
<path d="M0 0 C1.32 0.33 2.64 0.66 4 1 C4.33 2.32 4.66 3.64 5 5 C2.69 5.33 0.38 5.66 -2 6 C-1.34 4.02 -0.68 2.04 0 0 Z " fill="#0B8DE2" transform="translate(59,53)"/>
<path d="M0 0 C1 3 1 3 -0.21484375 5.91796875 C-0.78332031 6.99691406 -1.35179688 8.07585938 -1.9375 9.1875 C-2.50339844 10.27417969 -3.06929688 11.36085938 -3.65234375 12.48046875 C-4.09707031 13.31191406 -4.54179688 14.14335938 -5 15 C-5.66 13.68 -6.32 12.36 -7 11 C-6.34 10.01 -5.68 9.02 -5 8 C-4.34 8 -3.68 8 -3 8 C-3.33 7.01 -3.66 6.02 -4 5 C-3.01 4.67 -2.02 4.34 -1 4 C-0.26676204 1.98491642 -0.26676204 1.98491642 0 0 Z " fill="#F5AB54" transform="translate(94,45)"/>
<path d="M0 0 C0.66 0.33 1.32 0.66 2 1 C0.35 2.98 -1.3 4.96 -3 7 C-3.33 6.34 -3.66 5.68 -4 5 C-5.65 5.33 -7.3 5.66 -9 6 C-9.66 4.68 -10.32 3.36 -11 2 C-9.39125 2.3403125 -9.39125 2.3403125 -7.75 2.6875 C-4.07021424 3.35775825 -4.07021424 3.35775825 -1.5625 1.5625 C-1.046875 1.046875 -0.53125 0.53125 0 0 Z " fill="#F39C50" transform="translate(81,71)"/>
<path d="M0 0 C-1.52961986 3.44164469 -3.62729066 6.09151758 -6 9 C-6.33 9.66 -6.66 10.32 -7 11 C-7.66 9.68 -8.32 8.36 -9 7 C-7.88121617 5.82737096 -6.75476949 4.66204862 -5.625 3.5 C-4.68527344 2.52546875 -4.68527344 2.52546875 -3.7265625 1.53125 C-2 0 -2 0 0 0 Z " fill="#1290DD" transform="translate(55,49)"/>
<path d="M0 0 C0.66 0 1.32 0 2 0 C1.49202991 4.3177458 0.80317221 8.03302114 -1 12 C-2.084894 8.74531799 -2.21314985 6.4103976 -2 3 C-1.34 2.01 -0.68 1.02 0 0 Z " fill="#F3AF55" transform="translate(97,33)"/>
<path d="M0 0 C1.11375 1.0209375 1.11375 1.0209375 2.25 2.0625 C4.75949064 4.28353676 4.75949064 4.28353676 7.3125 3.75 C7.869375 3.5025 8.42625 3.255 9 3 C8.67 4.65 8.34 6.3 8 8 C4.63820226 6.55922954 2.40843732 4.75249979 0 2 C0 1.34 0 0.68 0 0 Z " fill="#296B96" transform="translate(66,50)"/>
<path d="M0 0 C2 1.3125 2 1.3125 4 3 C4 3.99 4 4.98 4 6 C1.69 6 -0.62 6 -3 6 C-3 4 -3 4 -1 2 C-0.67 1.34 -0.34 0.68 0 0 Z " fill="#D0A26B" transform="translate(81,25)"/>
<path d="M0 0 C0.66 0.66 1.32 1.32 2 2 C1.625 4.625 1.625 4.625 1 7 C0.01 6.67 -0.98 6.34 -2 6 C-2.33 6.99 -2.66 7.98 -3 9 C-2.4140625 2.84765625 -2.4140625 2.84765625 -2 1 C-1.34 0.67 -0.68 0.34 0 0 Z " fill="#EE914B" transform="translate(102,24)"/>
<path d="M0 0 C1.39195915 4.17587745 -0.17676781 6.13474776 -2 10 C-2.66 10 -3.32 10 -4 10 C-3.52449439 8.51965236 -3.04448784 7.04074979 -2.5625 5.5625 C-2.29566406 4.73878906 -2.02882813 3.91507813 -1.75390625 3.06640625 C-1 1 -1 1 0 0 Z " fill="#FED061" transform="translate(95,39)"/>
<path d="M0 0 C4.55737263 0.43820891 7.57653445 0.85041169 11 4 C8.36 4 5.72 4 3 4 C3 3.34 3 2.68 3 2 C2.01 2 1.02 2 0 2 C0 1.34 0 0.68 0 0 Z " fill="#E28245" transform="translate(77,78)"/>
<path d="M0 0 C0.598125 0.350625 1.19625 0.70125 1.8125 1.0625 C1.4825 2.3825 1.1525 3.7025 0.8125 5.0625 C0.1525 5.0625 -0.5075 5.0625 -1.1875 5.0625 C-1.1875 4.0725 -1.1875 3.0825 -1.1875 2.0625 C-2.5075 1.4025 -3.8275 0.7425 -5.1875 0.0625 C-2.1875 -0.9375 -2.1875 -0.9375 0 0 Z " fill="#F5A011" transform="translate(83.1875,30.9375)"/>
<path d="M0 0 C1.65 0 3.3 0 5 0 C4.34 1.32 3.68 2.64 3 4 C1.68 4 0.36 4 -1 4 C-0.67 2.68 -0.34 1.36 0 0 Z " fill="#F8C75E" transform="translate(79,37)"/>
<path d="M0 0 C0.93423645 3.01031744 1.04449911 3.86650268 0 7 C-1.32 7 -2.64 7 -4 7 C-2.79618552 4.50638429 -1.54571278 2.31856917 0 0 Z " fill="#3E4447" transform="translate(82,72)"/>
<path d="M0 0 C0.99 0.66 1.98 1.32 3 2 C2.34 3.32 1.68 4.64 1 6 C-0.32 5.34 -1.64 4.68 -3 4 C-2.01 2.68 -1.02 1.36 0 0 Z " fill="#088CDD" transform="translate(74,59)"/>
<path d="M0 0 C0.33 0 0.66 0 1 0 C1.3125 2.75 1.3125 2.75 1 6 C-1.5 8.375 -1.5 8.375 -4 10 C-3.6875 8.0625 -3.6875 8.0625 -3 6 C-2.01 5.67 -1.02 5.34 0 5 C0 3.35 0 1.7 0 0 Z " fill="#F8A551" transform="translate(87,60)"/>
</svg>
